<svg xmlns="http://www.w3.org/2000/svg" version="1.1" xmlns:xlink="http://www.w3.org/1999/xlink" xmlns:svgjs="http://svgjs.com/svgjs" width="1440" height="1080" preserveAspectRatio="none" viewBox="0 0 1440 1080"><g mask="url(&quot;#SvgjsMask1004&quot;)" fill="none"><path d="M893.23 1167.14C961.82 1162.91 901.39 1073.55 1134.35 1035.12 1367.31 996.69 1451.56 597.49 1616.59 559.92" stroke="rgba(1, 117, 58, 1)" stroke-width="2"></path><path d="M650.26 1201.7C732.9 1194.56 665.85 1063.11 931.11 1025.02 1196.37 986.93 1309.91 571.15 1492.8 539.02" stroke="rgba(1, 117, 58, 1)" stroke-width="2"></path><path d="M326.19 1274.67C529.54 1094.71 451.63 345.42 743.51 271.84 1035.4 198.26 952.17 406.84 1160.84 406.84 1369.5 406.84 1468.52 273.51 1578.16 271.84" stroke="rgba(1, 117, 58, 1)" stroke-width="2"></path><path d="M732.41 1207.42C907.72 1159.29 905.77 725.99 1224.26 671.82 1542.76 617.65 1572.26 381.19 1716.12 369.42" stroke="rgba(1, 117, 58, 1)" stroke-width="2"></path><path d="M268.71 1120.27C469.96 1077.29 499.72 595.53 864.47 552.24 1229.21 508.95 1294.58 268.32 1460.22 260.64" stroke="rgba(1, 117, 58, 1)" stroke-width="2"></path></g><defs><mask id="SvgjsMask1004"><rect width="1440" height="1080" fill="#ffffff"></rect></mask></defs></svg>