<svg xmlns="http://www.w3.org/2000/svg" xmlns:xlink="http://www.w3.org/1999/xlink" width="500" zoomAndPan="magnify" viewBox="0 0 375 374.999991" height="500" preserveAspectRatio="xMidYMid meet" version="1.0"><defs><clipPath id="d9e2c32fe3"><path d="M 13.683594 200 L 50 200 L 50 237 L 13.683594 237 Z M 13.683594 200 " clip-rule="nonzero"/></clipPath></defs><path fill="#fccf3b" d="M 321.191406 194.28125 C 321.191406 264.382812 264.339844 321.214844 194.207031 321.214844 C 124.078125 321.214844 67.226562 264.382812 67.226562 194.28125 C 67.226562 124.175781 124.078125 67.34375 194.207031 67.34375 C 264.339844 67.34375 321.191406 124.175781 321.191406 194.28125 " fill-opacity="1" fill-rule="nonzero"/><path stroke-linecap="round" transform="matrix(0.15811, 0, 0, -0.158052, -150.910663, 518.743958)" fill="none" stroke-linejoin="round" d="M 2985.910298 2052.891244 C 2985.910298 1609.355268 2626.315751 1249.776258 2182.770516 1249.776258 C 1739.225281 1249.776258 1379.65544 1609.355268 1379.65544 2052.891244 C 1379.65544 2496.451934 1739.225281 2856.030944 2182.770516 2856.030944 " stroke="#4d56af" stroke-width="50" stroke-opacity="1" stroke-miterlimit="10"/><path stroke-linecap="round" transform="matrix(0.15811, 0, 0, -0.158052, -150.910663, 518.743958)" fill="none" stroke-linejoin="round" d="M 2782.60535 2052.891244 C 2782.60535 1721.610946 2514.052088 1453.057401 2182.770516 1453.057401 C 1851.488945 1453.057401 1582.935683 1721.610946 1582.935683 2052.891244 C 1582.935683 2279.231513 1708.29348 2476.259753 1893.316053 2578.406983 C 1979.144391 2625.7857 2077.819803 2652.749801 2182.770516 2652.749801 " stroke="#4d56af" stroke-width="50" stroke-opacity="1" stroke-miterlimit="10"/><path stroke-linecap="round" transform="matrix(0.15811, 0, 0, -0.158052, -150.910663, 518.743958)" fill="none" stroke-linejoin="round" d="M 1640.821634 2644.223115 C 1314.20948 2344.899354 1292.097689 1837.499734 1591.434517 1510.940008 C 1890.746638 1184.380281 2398.156656 1162.285042 2724.719398 1461.608802 C 2947.863194 1666.051553 3028.873879 1967.673811 2962.340858 2242.356684 " stroke="#4d56af" stroke-width="50" stroke-opacity="1" stroke-miterlimit="10"/><path fill="#ffffff" d="M 212.617188 218.253906 L 191.445312 218.253906 L 191.445312 198.082031 L 212.617188 198.082031 C 218.191406 198.082031 222.710938 202.609375 222.710938 208.171875 C 222.710938 213.734375 218.191406 218.253906 212.617188 218.253906 Z M 189.316406 156.78125 L 204.558594 156.78125 C 206.875 156.78125 209.019531 157.507812 210.785156 158.738281 C 213.636719 160.710938 215.515625 164.007812 215.515625 167.730469 C 215.515625 171.457031 213.636719 174.746094 210.785156 176.726562 C 209.019531 177.949219 206.875 178.679688 204.558594 178.679688 L 189.316406 178.679688 Z M 226.792969 183.988281 C 230.191406 179.445312 232.234375 173.832031 232.234375 167.730469 C 232.234375 155.328125 223.890625 144.863281 212.527344 141.59375 L 212.527344 129.886719 L 198.523438 129.886719 L 198.523438 140.511719 L 186.59375 140.511719 L 186.59375 129.886719 L 172.589844 129.886719 L 172.589844 140.511719 L 161.441406 140.511719 L 161.441406 154.507812 L 172.589844 154.507812 L 172.589844 221.390625 L 161.441406 221.390625 L 161.441406 235.390625 L 172.589844 235.390625 L 172.589844 246.015625 L 186.59375 246.015625 L 186.59375 235.390625 L 198.523438 235.390625 L 198.523438 246.015625 L 212.527344 246.015625 L 212.527344 235.390625 L 214.34375 235.390625 C 229.355469 235.390625 241.574219 223.179688 241.574219 208.171875 C 241.574219 197.644531 235.558594 188.519531 226.792969 183.988281 " fill-opacity="1" fill-rule="nonzero"/><path stroke-linecap="round" transform="matrix(0.15811, 0, 0, -0.158052, -150.910663, 518.743958)" fill="none" stroke-linejoin="round" d="M 2192.158763 2652.675656 L 2352.895425 2965.172529 " stroke="#4d56af" stroke-width="50" stroke-opacity="1" stroke-miterlimit="10"/><path stroke-linecap="round" transform="matrix(0.15811, 0, 0, -0.158052, -150.910663, 518.743958)" fill="none" stroke-linejoin="round" d="M 2454.412017 2528.828627 L 2727.857049 3060.44898 " stroke="#4d56af" stroke-width="50" stroke-opacity="1" stroke-miterlimit="10"/><path stroke-linecap="round" transform="matrix(0.15811, 0, 0, -0.158052, -150.910663, 518.743958)" fill="none" stroke-linejoin="round" d="M 2712.415854 2384.468122 L 2891.607832 2732.752362 " stroke="#4d56af" stroke-width="50" stroke-opacity="1" stroke-miterlimit="10"/><path fill="#ffffff" d="M 332.078125 61.300781 C 332.078125 69.109375 325.742188 75.445312 317.929688 75.445312 C 310.109375 75.445312 303.773438 69.109375 303.773438 61.300781 C 303.773438 53.484375 310.109375 47.148438 317.929688 47.148438 C 325.742188 47.148438 332.078125 53.484375 332.078125 61.300781 " fill-opacity="1" fill-rule="nonzero"/><path stroke-linecap="round" transform="matrix(0.15811, 0, 0, -0.158052, -150.910663, 518.743958)" fill="none" stroke-linejoin="round" d="M 3054.765674 2894.2651 C 3054.765674 2844.85975 3014.692685 2804.771967 2965.280862 2804.771967 C 2915.819626 2804.771967 2875.746637 2844.85975 2875.746637 2894.2651 C 2875.746637 2943.71988 2915.819626 2983.807663 2965.280862 2983.807663 C 3014.692685 2983.807663 3054.765674 2943.71988 3054.765674 2894.2651 Z M 3054.765674 2894.2651 " stroke="#4d56af" stroke-width="50" stroke-opacity="1" stroke-miterlimit="10"/><path fill="#ffffff" d="M 45.867188 218.492188 C 45.867188 226.304688 39.53125 232.644531 31.71875 232.644531 C 23.898438 232.644531 17.5625 226.304688 17.5625 218.492188 C 17.5625 210.679688 23.898438 204.34375 31.71875 204.34375 C 39.53125 204.34375 45.867188 210.679688 45.867188 218.492188 " fill-opacity="1" fill-rule="nonzero"/><g clip-path="url(#d9e2c32fe3)"><path stroke-linecap="round" transform="matrix(0.15811, 0, 0, -0.158052, -150.910663, 518.743958)" fill="none" stroke-linejoin="round" d="M 1244.563515 1899.707471 C 1244.563515 1850.277406 1204.490526 1810.164908 1155.078702 1810.164908 C 1105.617466 1810.164908 1065.544477 1850.277406 1065.544477 1899.707471 C 1065.544477 1949.137536 1105.617466 1989.225319 1155.078702 1989.225319 C 1204.490526 1989.225319 1244.563515 1949.137536 1244.563515 1899.707471 Z M 1244.563515 1899.707471 " stroke="#4d56af" stroke-width="50" stroke-opacity="1" stroke-miterlimit="10"/></g><path fill="#ffffff" d="M 244.757812 24.332031 C 244.757812 32.148438 238.421875 38.480469 230.609375 38.480469 C 222.789062 38.480469 216.453125 32.148438 216.453125 24.332031 C 216.453125 16.519531 222.789062 10.1875 230.609375 10.1875 C 238.421875 10.1875 244.757812 16.519531 244.757812 24.332031 " fill-opacity="1" fill-rule="nonzero"/><path stroke-linecap="round" transform="matrix(0.15811, 0, 0, -0.158052, -150.910663, 518.743958)" fill="none" stroke-linejoin="round" d="M 2502.489721 3128.168169 C 2502.489721 3078.713389 2462.416732 3038.650321 2413.004909 3038.650321 C 2363.543673 3038.650321 2323.470684 3078.713389 2323.470684 3128.168169 C 2323.470684 3177.598234 2363.543673 3217.661302 2413.004909 3217.661302 C 2462.416732 3217.661302 2502.489721 3177.598234 2502.489721 3128.168169 Z M 2502.489721 3128.168169 " stroke="#4d56af" stroke-width="50" stroke-opacity="1" stroke-miterlimit="10"/><path fill="#ffffff" d="M 303.910156 189.488281 C 303.910156 197.695312 297.25 204.34375 289.046875 204.34375 C 280.839844 204.34375 274.183594 197.695312 274.183594 189.488281 C 274.183594 181.285156 280.839844 174.628906 289.046875 174.628906 C 297.25 174.628906 303.910156 181.285156 303.910156 189.488281 " fill-opacity="1" fill-rule="nonzero"/><path stroke-linecap="round" transform="matrix(0.15811, 0, 0, -0.158052, -150.910663, 518.743958)" fill="none" stroke-linejoin="round" d="M 2876.611344 2083.216589 C 2876.611344 2031.290305 2834.487764 1989.225319 2782.60535 1989.225319 C 2730.698229 1989.225319 2688.599355 2031.290305 2688.599355 2083.216589 C 2688.599355 2135.118157 2730.698229 2177.232573 2782.60535 2177.232573 C 2834.487764 2177.232573 2876.611344 2135.118157 2876.611344 2083.216589 Z M 2876.611344 2083.216589 " stroke="#4d56af" stroke-width="50" stroke-opacity="1" stroke-miterlimit="10"/><path stroke-linecap="round" transform="matrix(0.15811, 0, 0, -0.158052, -150.910663, 518.743958)" fill="none" stroke-linejoin="round" d="M 1200.315226 2229.579012 C 1286.415329 2716.020285 1710.34407 3057.730326 2188.057581 3055.975559 " stroke="#4d56af" stroke-width="50" stroke-opacity="1" stroke-miterlimit="10"/><path stroke-linecap="round" transform="matrix(0.15811, 0, 0, -0.158052, -150.910663, 518.743958)" fill="none" stroke-linejoin="round" d="M 3034.803297 2584.536311 C 3161.025801 2382.144908 3215.774102 2134.228416 3170.932872 1880.874616 C 3074.653933 1336.699027 2555.43449 973.610483 2011.262076 1069.90025 " stroke="#4d56af" stroke-width="50" stroke-opacity="1" stroke-miterlimit="10"/><path stroke-linecap="round" transform="matrix(0.15811, 0, 0, -0.158052, -150.910663, 518.743958)" fill="none" stroke-linejoin="round" d="M 1294.02475 1399.37635 L 1393.120162 1428.564804 " stroke="#4d56af" stroke-width="50" stroke-opacity="1" stroke-miterlimit="10"/><path stroke-linecap="round" transform="matrix(0.15811, 0, 0, -0.158052, -150.910663, 518.743958)" fill="none" stroke-linejoin="round" d="M 1328.983615 1463.51186 L 1358.161297 1364.429294 " stroke="#4d56af" stroke-width="50" stroke-opacity="1" stroke-miterlimit="10"/><path fill="#4d56af" d="M 129.691406 333.285156 C 134.726562 338.316406 134.726562 346.472656 129.699219 351.5 C 124.65625 356.53125 116.503906 356.53125 111.472656 351.5 C 106.445312 346.472656 106.445312 338.316406 111.472656 333.285156 C 116.503906 328.257812 124.65625 328.257812 129.691406 333.285156 " fill-opacity="1" fill-rule="nonzero"/></svg>