<svg width="42" height="42" viewBox="0 0 42 42" fill="none" xmlns="http://www.w3.org/2000/svg">
<g clip-path="url(#clip0_148_32)">
<path d="M19.3848 30.2404C20.9655 26.4241 22.7742 23.0108 24.8062 19.9921C26.8439 16.9651 29.1073 14.3331 31.5919 12.0877L31.7124 12.0005C32.2756 11.6856 32.7621 11.6214 33.1564 11.8574C33.5576 12.0975 33.7438 12.565 33.6793 13.2975L33.6408 13.4642C32.5013 16.6103 30.9195 19.6998 28.8857 22.7312C26.8572 25.7549 24.3806 28.7189 21.4466 31.622L20.5482 30.7186L19.3848 30.2404ZM25.8932 20.7201C23.9432 23.6168 22.2026 26.8886 20.6758 30.543C23.4837 27.7473 25.8551 24.9003 27.7988 22.0031C29.7427 19.1055 31.2604 16.1556 32.3605 13.1548C29.9996 15.3052 27.8424 17.8245 25.8932 20.7201ZM32.4847 12.9802C32.4566 12.9634 32.4592 12.9904 32.4455 13.0308C32.4815 13.0032 32.5154 12.9985 32.4847 12.9802Z" fill="white"/>
<path d="M15.4221 35.8399C15.8659 34.7819 16.1731 33.804 16.4363 32.9661C16.7423 31.9919 16.9925 31.1955 17.345 30.6135C18.0404 29.4652 18.9221 29.1804 20.579 30.184L20.6303 30.2173C21.1963 30.6377 21.5621 31.1145 21.7536 31.6189C22.0067 32.2859 21.952 32.9722 21.6483 33.6239C21.3729 34.215 20.8861 34.774 20.2395 35.2522C19.2098 36.0136 17.7486 36.5838 16.0886 36.7448L14.998 36.8507L15.4221 35.8399ZM17.6873 33.3558C17.5054 33.9348 17.3034 34.578 17.0543 35.2642C18.0082 35.0413 18.8353 34.6633 19.4601 34.2012C19.9293 33.8542 20.2746 33.4657 20.4589 33.0702C20.6149 32.7353 20.6479 32.3956 20.5282 32.0804C20.4257 31.8102 20.2115 31.5398 19.8684 31.2814C19.0855 30.8154 18.7097 30.8824 18.4626 31.2902C18.1997 31.7244 17.9692 32.4582 17.6873 33.3558Z" fill="white"/>
<path d="M23.981 5.64326L25.7105 6.80552C26.2637 7.17725 26.6053 7.74969 26.71 8.37235C26.8123 8.98122 26.6867 9.64054 26.3085 10.2033L14.5681 27.6738L14.3194 27.8942L9.25847 30.4441L8.21777 30.9684L8.30996 29.8083L8.75894 24.1591L8.86917 23.8464L20.6096 6.37596C20.9882 5.81261 21.552 5.44683 22.1552 5.31139C22.7712 5.17303 23.4294 5.27259 23.981 5.64326ZM24.9825 7.89245L23.253 6.73019C23.012 6.56822 22.7194 6.52583 22.4423 6.58806C22.1524 6.65314 21.8804 6.8304 21.6966 7.10401L10.0529 24.4304L9.70955 28.7509L13.5779 26.8019L25.2216 9.47534C25.4059 9.20115 25.4674 8.88159 25.418 8.58773C25.3709 8.3077 25.2219 8.05333 24.9825 7.89245Z" fill="white"/>
<path d="M9.77684 23.667L14.3888 26.7663L13.6608 27.8532L9.04883 24.7539L9.77684 23.667Z" fill="white"/>
<path d="M23.2816 9.72605L13.2949 24.5868L12.208 23.8588L22.1947 8.99805L23.2816 9.72605Z" fill="white"/>
</g>
<defs>
<clipPath id="clip0_148_32">
<rect width="42" height="42" fill="white"/>
</clipPath>
</defs>
</svg>
