<svg width="555" height="391" viewBox="0 0 555 391" fill="none" xmlns="http://www.w3.org/2000/svg">
<path d="M296.044 432.23C328.529 430.229 299.909 387.948 410.241 369.765C520.574 351.582 560.475 162.701 638.635 144.925" stroke="#01753A" stroke-opacity="0.4" stroke-width="2"/>
<path d="M180.971 448.582C220.11 445.204 188.354 383.009 313.984 364.986C439.614 346.964 493.388 150.239 580.007 135.036" stroke="#01753A" stroke-opacity="0.4" stroke-width="2"/>
<path d="M27.4873 483.108C123.796 397.96 86.8971 43.4348 225.135 8.62058C363.377 -26.1937 323.958 72.4956 422.787 72.4956C521.611 72.4956 568.507 9.41074 620.434 8.62058" stroke="#01753A" stroke-opacity="0.4" stroke-width="2"/>
<path d="M219.877 451.289C302.906 428.516 301.983 223.501 452.823 197.87C603.668 172.24 617.64 60.3594 685.773 54.7904" stroke="#01753A" stroke-opacity="0.4" stroke-width="2"/>
<path d="M0.26416 410.054C95.5784 389.718 109.673 161.774 282.423 141.291C455.168 120.809 486.128 6.9551 564.577 3.32132" stroke="#01753A" stroke-opacity="0.4" stroke-width="2"/>
</svg>
