<svg xmlns="http://www.w3.org/2000/svg" xmlns:xlink="http://www.w3.org/1999/xlink" width="500" zoomAndPan="magnify" viewBox="0 0 375 374.999991" height="500" preserveAspectRatio="xMidYMid meet" version="1.0"><defs><clipPath id="d7ed8a1a61"><path d="M 123 316 L 165 316 L 165 367.085938 L 123 367.085938 Z M 123 316 " clip-rule="nonzero"/></clipPath><clipPath id="8ded21f534"><path d="M 213 317 L 249 317 L 249 367.085938 L 213 367.085938 Z M 213 317 " clip-rule="nonzero"/></clipPath><clipPath id="1ca5701b77"><path d="M 282 107 L 353.382812 107 L 353.382812 363 L 282 363 Z M 282 107 " clip-rule="nonzero"/></clipPath><clipPath id="701fada667"><path d="M 301 324 L 335 324 L 335 367.085938 L 301 367.085938 Z M 301 324 " clip-rule="nonzero"/></clipPath><clipPath id="4679fc7e4c"><path d="M 50 7.835938 L 160 7.835938 L 160 117 L 50 117 Z M 50 7.835938 " clip-rule="nonzero"/></clipPath></defs><path fill="#f4b592" d="M 92.25 194.164062 L 92.25 360.875 C 92.25 361.152344 92.195312 361.414062 92.089844 361.667969 C 91.984375 361.921875 91.835938 362.148438 91.640625 362.34375 C 91.445312 362.535156 91.222656 362.6875 90.96875 362.792969 C 90.714844 362.898438 90.449219 362.949219 90.171875 362.949219 L 24.167969 362.949219 C 23.894531 362.949219 23.628906 362.898438 23.375 362.792969 C 23.117188 362.6875 22.894531 362.535156 22.699219 362.34375 C 22.503906 362.148438 22.355469 361.921875 22.25 361.667969 C 22.144531 361.414062 22.089844 361.152344 22.089844 360.875 L 23.273438 193.683594 C 23.289062 193.058594 23.539062 192.542969 24.023438 192.140625 L 55.34375 165.683594 C 55.527344 165.53125 55.734375 165.417969 55.960938 165.335938 C 56.183594 165.257812 56.417969 165.214844 56.65625 165.214844 C 56.894531 165.214844 57.128906 165.257812 57.355469 165.335938 C 57.578125 165.417969 57.785156 165.53125 57.96875 165.683594 L 91.480469 192.542969 C 91.996094 192.960938 92.25 193.5 92.25 194.164062 Z M 92.25 194.164062 " fill-opacity="1" fill-rule="nonzero"/><path fill="#135973" d="M 38.773438 212.675781 L 75.578125 212.675781 L 75.578125 249.4375 L 38.773438 249.4375 Z M 38.773438 212.675781 " fill-opacity="1" fill-rule="nonzero"/><path fill="#135973" d="M 79.738281 253.597656 L 34.621094 253.597656 L 34.621094 208.527344 L 79.738281 208.527344 Z M 42.925781 245.300781 L 71.433594 245.300781 L 71.433594 216.824219 L 42.925781 216.824219 Z M 42.925781 245.300781 " fill-opacity="1" fill-rule="nonzero"/><path fill="#135973" d="M 38.773438 265.910156 L 75.578125 265.910156 L 75.578125 302.671875 L 38.773438 302.671875 Z M 38.773438 265.910156 " fill-opacity="1" fill-rule="nonzero"/><path fill="#135973" d="M 79.738281 306.820312 L 34.621094 306.820312 L 34.621094 261.761719 L 79.738281 261.761719 Z M 42.925781 298.523438 L 71.433594 298.523438 L 71.433594 270.058594 L 42.925781 270.058594 Z M 42.925781 298.523438 " fill-opacity="1" fill-rule="nonzero"/><path fill="#135973" d="M 43.09375 320.675781 L 71.257812 320.675781 L 71.257812 358.90625 L 43.09375 358.90625 Z M 43.09375 320.675781 " fill-opacity="1" fill-rule="nonzero"/><path fill="#135973" d="M 75.410156 363.054688 L 38.941406 363.054688 L 38.941406 316.527344 L 75.410156 316.527344 Z M 47.246094 354.757812 L 67.105469 354.757812 L 67.105469 324.824219 L 47.246094 324.824219 Z M 47.246094 354.757812 " fill-opacity="1" fill-rule="nonzero"/><path fill="#f2ce80" d="M 177.160156 238.851562 L 177.160156 361.425781 C 177.125 361.65625 177.050781 361.871094 176.933594 362.074219 C 176.816406 362.277344 176.664062 362.445312 176.480469 362.589844 C 176.292969 362.730469 176.085938 362.832031 175.863281 362.890625 C 175.636719 362.953125 175.40625 362.96875 175.175781 362.9375 L 113.074219 362.9375 C 112.84375 362.960938 112.621094 362.941406 112.398438 362.878906 C 112.175781 362.816406 111.976562 362.710938 111.796875 362.570312 C 111.613281 362.425781 111.464844 362.257812 111.351562 362.054688 C 111.238281 361.855469 111.164062 361.644531 111.132812 361.414062 L 112.242188 238.519531 C 112.261719 238.011719 112.492188 237.632812 112.929688 237.378906 L 142.414062 217.941406 C 142.792969 217.714844 143.203125 217.601562 143.648438 217.601562 C 144.089844 217.601562 144.503906 217.714844 144.882812 217.941406 L 176.433594 237.648438 C 176.652344 237.769531 176.828125 237.933594 176.960938 238.152344 C 177.089844 238.367188 177.15625 238.597656 177.160156 238.851562 Z M 177.160156 238.851562 " fill-opacity="1" fill-rule="nonzero"/><path fill="#178768" d="M 127.265625 263.917969 L 161.015625 263.917969 L 161.015625 295.371094 L 127.265625 295.371094 Z M 127.265625 263.917969 " fill-opacity="1" fill-rule="nonzero"/><path fill="#178768" d="M 165.167969 299.519531 L 123.113281 299.519531 L 123.113281 259.769531 L 165.167969 259.769531 Z M 131.417969 291.222656 L 156.863281 291.222656 L 156.863281 268.066406 L 131.417969 268.066406 Z M 131.417969 291.222656 " fill-opacity="1" fill-rule="nonzero"/><path fill="#178768" d="M 127.597656 320.59375 L 160.683594 320.59375 L 160.683594 362.9375 L 127.597656 362.9375 Z M 127.597656 320.59375 " fill-opacity="1" fill-rule="nonzero"/><g clip-path="url(#d7ed8a1a61)"><path fill="#178768" d="M 164.792969 367.085938 L 123.445312 367.085938 L 123.445312 316.445312 L 164.792969 316.445312 Z M 131.710938 358.789062 L 156.488281 358.789062 L 156.488281 324.742188 L 131.75 324.742188 Z M 131.710938 358.789062 " fill-opacity="1" fill-rule="nonzero"/></g><path fill="#135778" d="M 266.191406 194.164062 L 266.191406 360.875 C 266.191406 361.152344 266.136719 361.414062 266.03125 361.667969 C 265.925781 361.921875 265.777344 362.148438 265.582031 362.34375 C 265.386719 362.535156 265.164062 362.6875 264.910156 362.792969 C 264.652344 362.898438 264.390625 362.949219 264.113281 362.949219 L 198.109375 362.949219 C 197.832031 362.949219 197.570312 362.898438 197.3125 362.792969 C 197.058594 362.6875 196.835938 362.535156 196.640625 362.34375 C 196.445312 362.148438 196.296875 361.921875 196.191406 361.667969 C 196.085938 361.414062 196.03125 361.152344 196.03125 360.875 L 197.214844 193.683594 C 197.21875 193.050781 197.460938 192.53125 197.941406 192.121094 L 229.273438 165.683594 C 229.460938 165.53125 229.664062 165.417969 229.890625 165.335938 C 230.117188 165.257812 230.347656 165.214844 230.585938 165.214844 C 230.828125 165.214844 231.058594 165.257812 231.285156 165.335938 C 231.507812 165.417969 231.714844 165.53125 231.898438 165.683594 L 265.410156 192.542969 C 265.929688 192.960938 266.191406 193.5 266.191406 194.164062 Z M 266.191406 194.164062 " fill-opacity="1" fill-rule="nonzero"/><path fill="#f4b592" d="M 217.429688 321.871094 L 244.804688 321.871094 L 244.804688 362.9375 L 217.429688 362.9375 Z M 217.429688 321.871094 " fill-opacity="1" fill-rule="nonzero"/><g clip-path="url(#8ded21f534)"><path fill="#f4b592" d="M 248.945312 367.085938 L 213.277344 367.085938 L 213.277344 317.722656 L 248.945312 317.722656 Z M 221.582031 358.789062 L 240.640625 358.789062 L 240.640625 326.019531 L 221.582031 326.019531 Z M 221.582031 358.789062 " fill-opacity="1" fill-rule="nonzero"/></g><path fill="#f4b592" d="M 212.175781 263.730469 L 250.046875 263.730469 L 250.046875 298.246094 L 212.175781 298.246094 Z M 212.175781 263.730469 " fill-opacity="1" fill-rule="nonzero"/><path fill="#f4b592" d="M 254.199219 302.394531 L 208.023438 302.394531 L 208.023438 259.582031 L 254.199219 259.582031 Z M 216.328125 294.097656 L 245.894531 294.097656 L 245.894531 267.878906 L 216.328125 267.878906 Z M 216.328125 294.097656 " fill-opacity="1" fill-rule="nonzero"/><path fill="#f4b592" d="M 212.3125 209.042969 L 249.910156 209.042969 L 249.910156 243.15625 L 212.3125 243.15625 Z M 212.3125 209.042969 " fill-opacity="1" fill-rule="nonzero"/><path fill="#f4b592" d="M 254.074219 247.304688 L 208.15625 247.304688 L 208.15625 204.894531 L 254.074219 204.894531 Z M 216.472656 239.007812 L 245.769531 239.007812 L 245.769531 213.191406 L 216.464844 213.191406 Z M 216.472656 239.007812 " fill-opacity="1" fill-rule="nonzero"/><g clip-path="url(#1ca5701b77)"><path fill="#f2ce80" d="M 353.15625 144.746094 L 353.15625 360.273438 C 353.191406 360.585938 353.164062 360.894531 353.078125 361.199219 C 352.992188 361.5 352.851562 361.777344 352.65625 362.027344 C 352.464844 362.273438 352.230469 362.480469 351.957031 362.636719 C 351.683594 362.792969 351.390625 362.894531 351.078125 362.9375 L 285.074219 362.9375 C 284.757812 362.894531 284.464844 362.792969 284.191406 362.632812 C 283.914062 362.476562 283.683594 362.269531 283.488281 362.019531 C 283.292969 361.769531 283.152344 361.488281 283.070312 361.183594 C 282.984375 360.878906 282.960938 360.566406 282.996094 360.253906 L 284.179688 144.183594 C 284.15625 143.398438 284.402344 142.707031 284.917969 142.109375 L 316.25 107.9375 C 316.410156 107.746094 316.605469 107.59375 316.835938 107.488281 C 317.0625 107.378906 317.304688 107.324219 317.558594 107.324219 C 317.808594 107.324219 318.050781 107.378906 318.28125 107.488281 C 318.507812 107.59375 318.703125 107.746094 318.867188 107.9375 L 352.375 142.660156 C 352.914062 143.25 353.171875 143.945312 353.15625 144.746094 Z M 353.15625 144.746094 " fill-opacity="1" fill-rule="nonzero"/></g><path fill="#79c271" d="M 305.859375 328.425781 L 330.304688 328.425781 L 330.304688 362.9375 L 305.859375 362.9375 Z M 305.859375 328.425781 " fill-opacity="1" fill-rule="nonzero"/><g clip-path="url(#701fada667)"><path fill="#79c271" d="M 334.457031 367.085938 L 301.703125 367.085938 L 301.703125 324.277344 L 334.457031 324.277344 Z M 310.011719 358.789062 L 326.152344 358.789062 L 326.152344 332.574219 L 310.011719 332.574219 Z M 310.011719 358.789062 " fill-opacity="1" fill-rule="nonzero"/></g><path fill="#79c271" d="M 300.40625 163.164062 L 335.757812 163.164062 L 335.757812 195.6875 L 300.40625 195.6875 Z M 300.40625 163.164062 " fill-opacity="1" fill-rule="nonzero"/><path fill="#79c271" d="M 339.910156 199.835938 L 296.253906 199.835938 L 296.253906 159.015625 L 339.910156 159.015625 Z M 304.558594 191.539062 L 331.605469 191.539062 L 331.605469 167.3125 L 304.558594 167.3125 Z M 304.558594 191.539062 " fill-opacity="1" fill-rule="nonzero"/><path fill="#79c271" d="M 301.613281 215.992188 L 334.5625 215.992188 L 334.5625 247.054688 L 301.613281 247.054688 Z M 301.613281 215.992188 " fill-opacity="1" fill-rule="nonzero"/><path fill="#79c271" d="M 338.714844 251.203125 L 297.460938 251.203125 L 297.460938 211.84375 L 338.714844 211.84375 Z M 305.765625 242.90625 L 330.410156 242.90625 L 330.410156 220.089844 L 305.765625 220.089844 Z M 305.765625 242.90625 " fill-opacity="1" fill-rule="nonzero"/><path fill="#79c271" d="M 301.007812 269.890625 L 335.152344 269.890625 L 335.152344 305.203125 L 301.007812 305.203125 Z M 301.007812 269.890625 " fill-opacity="1" fill-rule="nonzero"/><path fill="#79c271" d="M 339.304688 309.34375 L 296.855469 309.34375 L 296.855469 265.785156 L 339.304688 265.785156 Z M 305.160156 301.046875 L 331 301.046875 L 331 274.082031 L 305.160156 274.082031 Z M 305.160156 301.046875 " fill-opacity="1" fill-rule="nonzero"/><path fill="#135778" d="M 147.425781 194.265625 C 146.257812 194.269531 145.21875 193.90625 144.3125 193.167969 L 64.488281 128.867188 L 31.101562 155.976562 C 30.894531 156.175781 30.667969 156.347656 30.425781 156.5 C 30.179688 156.648438 29.921875 156.773438 29.652344 156.871094 C 29.382812 156.96875 29.105469 157.039062 28.820312 157.078125 C 28.539062 157.117188 28.253906 157.128906 27.964844 157.109375 C 27.679688 157.089844 27.398438 157.042969 27.121094 156.964844 C 26.84375 156.886719 26.578125 156.785156 26.324219 156.652344 C 26.070312 156.519531 25.832031 156.363281 25.609375 156.179688 C 25.386719 156 25.1875 155.796875 25.007812 155.574219 C 24.824219 155.347656 24.671875 155.109375 24.539062 154.855469 C 24.410156 154.597656 24.308594 154.332031 24.230469 154.054688 C 24.15625 153.777344 24.113281 153.496094 24.09375 153.210938 C 24.078125 152.925781 24.089844 152.640625 24.132812 152.355469 C 24.175781 152.070312 24.246094 151.796875 24.347656 151.527344 C 24.449219 151.257812 24.574219 151.003906 24.726562 150.757812 C 24.878906 150.515625 25.054688 150.292969 25.257812 150.085938 C 25.457031 149.878906 25.675781 149.695312 25.910156 149.535156 L 61.425781 120.734375 C 61.867188 120.378906 62.355469 120.109375 62.890625 119.921875 C 63.425781 119.730469 63.976562 119.636719 64.542969 119.636719 C 65.109375 119.636719 65.660156 119.730469 66.191406 119.921875 C 66.726562 120.109375 67.214844 120.378906 67.65625 120.734375 L 147.59375 185.097656 L 339.285156 44.863281 C 339.675781 44.574219 340.101562 44.351562 340.5625 44.1875 C 341.019531 44.027344 341.492188 43.933594 341.976562 43.910156 C 342.460938 43.886719 342.941406 43.933594 343.410156 44.054688 C 343.882812 44.171875 344.328125 44.355469 344.746094 44.605469 C 345.160156 44.851562 345.535156 45.15625 345.863281 45.515625 C 346.1875 45.875 346.457031 46.273438 346.667969 46.710938 C 346.878906 47.148438 347.019531 47.609375 347.09375 48.085938 C 347.167969 48.566406 347.171875 49.046875 347.101562 49.527344 L 342.855469 78.722656 C 342.816406 78.992188 342.75 79.253906 342.660156 79.511719 C 342.570312 79.769531 342.453125 80.011719 342.3125 80.246094 C 342.175781 80.480469 342.011719 80.699219 341.832031 80.898438 C 341.648438 81.101562 341.449219 81.285156 341.230469 81.445312 C 341.011719 81.609375 340.777344 81.75 340.53125 81.867188 C 340.285156 81.984375 340.03125 82.074219 339.765625 82.140625 C 339.503906 82.210938 339.234375 82.25 338.960938 82.261719 C 338.691406 82.277344 338.417969 82.265625 338.148438 82.226562 C 337.878906 82.1875 337.617188 82.121094 337.359375 82.03125 C 337.105469 81.941406 336.859375 81.824219 336.625 81.6875 C 336.390625 81.546875 336.171875 81.386719 335.96875 81.203125 C 335.765625 81.023438 335.582031 80.824219 335.421875 80.605469 C 335.257812 80.386719 335.117188 80.15625 335 79.910156 C 334.882812 79.664062 334.789062 79.410156 334.722656 79.144531 C 334.65625 78.882812 334.613281 78.613281 334.597656 78.34375 C 334.585938 78.070312 334.597656 77.800781 334.636719 77.53125 L 337.75 56.257812 L 150.34375 193.3125 C 149.476562 193.949219 148.503906 194.265625 147.425781 194.265625 Z M 147.425781 194.265625 " fill-opacity="1" fill-rule="nonzero"/><path fill="#135778" d="M 343.261719 51.25 L 343.15625 51.25 L 311.660156 50.453125 C 311.386719 50.449219 311.117188 50.417969 310.851562 50.363281 C 310.585938 50.304688 310.328125 50.222656 310.078125 50.117188 C 309.824219 50.007812 309.589844 49.878906 309.363281 49.722656 C 309.140625 49.570312 308.929688 49.394531 308.742188 49.199219 C 308.550781 49.003906 308.382812 48.792969 308.234375 48.566406 C 308.085938 48.335938 307.960938 48.09375 307.859375 47.84375 C 307.757812 47.589844 307.679688 47.328125 307.632812 47.0625 C 307.582031 46.792969 307.558594 46.523438 307.5625 46.25 C 307.566406 45.980469 307.59375 45.710938 307.652344 45.445312 C 307.707031 45.175781 307.789062 44.917969 307.898438 44.667969 C 308.003906 44.417969 308.136719 44.179688 308.289062 43.957031 C 308.445312 43.730469 308.621094 43.523438 308.8125 43.335938 C 309.007812 43.144531 309.222656 42.976562 309.449219 42.824219 C 309.679688 42.675781 309.917969 42.554688 310.171875 42.453125 C 310.425781 42.351562 310.6875 42.273438 310.953125 42.226562 C 311.222656 42.175781 311.492188 42.152344 311.765625 42.15625 L 311.878906 42.15625 L 343.367188 42.953125 C 343.636719 42.957031 343.90625 42.988281 344.175781 43.042969 C 344.441406 43.101562 344.699219 43.183594 344.949219 43.289062 C 345.203125 43.398438 345.4375 43.527344 345.664062 43.679688 C 345.890625 43.835938 346.097656 44.011719 346.285156 44.207031 C 346.476562 44.398438 346.648438 44.613281 346.796875 44.839844 C 346.945312 45.070312 347.070312 45.308594 347.171875 45.5625 C 347.269531 45.816406 347.347656 46.074219 347.398438 46.34375 C 347.445312 46.613281 347.46875 46.882812 347.464844 47.152344 C 347.464844 47.425781 347.433594 47.695312 347.375 47.960938 C 347.320312 48.230469 347.238281 48.488281 347.128906 48.738281 C 347.023438 48.988281 346.890625 49.226562 346.738281 49.449219 C 346.582031 49.675781 346.410156 49.882812 346.214844 50.070312 C 346.019531 50.261719 345.804688 50.429688 345.578125 50.582031 C 345.347656 50.730469 345.109375 50.851562 344.855469 50.953125 C 344.601562 51.054688 344.339844 51.132812 344.074219 51.179688 C 343.804688 51.230469 343.535156 51.253906 343.261719 51.25 Z M 343.261719 51.25 " fill-opacity="1" fill-rule="nonzero"/><path fill="#f2ce80" d="M 155.597656 62.359375 C 155.597656 64.007812 155.515625 65.652344 155.355469 67.296875 C 155.191406 68.9375 154.949219 70.566406 154.628906 72.183594 C 154.304688 73.804688 153.90625 75.402344 153.425781 76.980469 C 152.945312 78.558594 152.390625 80.109375 151.757812 81.632812 C 151.125 83.160156 150.421875 84.648438 149.644531 86.101562 C 148.863281 87.558594 148.015625 88.972656 147.097656 90.34375 C 146.179688 91.714844 145.199219 93.039062 144.152344 94.3125 C 143.105469 95.589844 141.996094 96.808594 140.828125 97.976562 C 139.660156 99.140625 138.4375 100.25 137.160156 101.296875 C 135.886719 102.34375 134.5625 103.324219 133.1875 104.242188 C 131.8125 105.15625 130.398438 106.003906 128.941406 106.78125 C 127.488281 107.558594 125.996094 108.265625 124.46875 108.894531 C 122.945312 109.527344 121.390625 110.082031 119.8125 110.558594 C 118.230469 111.039062 116.628906 111.441406 115.011719 111.761719 C 113.390625 112.082031 111.761719 112.324219 110.117188 112.488281 C 108.472656 112.648438 106.824219 112.730469 105.175781 112.730469 C 103.523438 112.730469 101.875 112.648438 100.230469 112.488281 C 98.589844 112.324219 96.957031 112.082031 95.335938 111.761719 C 93.71875 111.441406 92.117188 111.039062 90.539062 110.558594 C 88.957031 110.082031 87.402344 109.527344 85.878906 108.894531 C 84.351562 108.265625 82.863281 107.558594 81.40625 106.78125 C 79.949219 106.003906 78.535156 105.15625 77.160156 104.242188 C 75.789062 103.324219 74.464844 102.34375 73.1875 101.296875 C 71.910156 100.25 70.6875 99.140625 69.519531 97.976562 C 68.351562 96.808594 67.246094 95.589844 66.195312 94.3125 C 65.148438 93.039062 64.167969 91.714844 63.25 90.34375 C 62.332031 88.972656 61.484375 87.558594 60.707031 86.101562 C 59.925781 84.648438 59.222656 83.160156 58.589844 81.632812 C 57.957031 80.109375 57.402344 78.558594 56.921875 76.980469 C 56.445312 75.402344 56.042969 73.804688 55.71875 72.183594 C 55.398438 70.566406 55.15625 68.9375 54.996094 67.296875 C 54.832031 65.652344 54.75 64.007812 54.75 62.359375 C 54.75 60.707031 54.832031 59.0625 54.996094 57.421875 C 55.15625 55.777344 55.398438 54.148438 55.71875 52.53125 C 56.042969 50.914062 56.445312 49.3125 56.921875 47.734375 C 57.402344 46.15625 57.957031 44.605469 58.589844 43.082031 C 59.222656 41.558594 59.925781 40.066406 60.707031 38.613281 C 61.484375 37.15625 62.332031 35.746094 63.25 34.371094 C 64.167969 33 65.148438 31.675781 66.195312 30.402344 C 67.246094 29.125 68.351562 27.90625 69.519531 26.738281 C 70.6875 25.574219 71.910156 24.464844 73.1875 23.417969 C 74.464844 22.375 75.789062 21.390625 77.160156 20.476562 C 78.535156 19.558594 79.949219 18.710938 81.40625 17.933594 C 82.863281 17.15625 84.351562 16.453125 85.878906 15.820312 C 87.402344 15.1875 88.957031 14.632812 90.539062 14.15625 C 92.117188 13.675781 93.71875 13.277344 95.335938 12.953125 C 96.957031 12.632812 98.589844 12.390625 100.230469 12.230469 C 101.875 12.066406 103.523438 11.984375 105.175781 11.984375 C 106.824219 11.984375 108.472656 12.066406 110.117188 12.230469 C 111.761719 12.390625 113.390625 12.632812 115.011719 12.953125 C 116.628906 13.277344 118.230469 13.675781 119.8125 14.15625 C 121.390625 14.632812 122.945312 15.1875 124.46875 15.820312 C 125.996094 16.453125 127.488281 17.15625 128.941406 17.933594 C 130.398438 18.710938 131.8125 19.558594 133.1875 20.476562 C 134.5625 21.390625 135.886719 22.375 137.160156 23.417969 C 138.4375 24.464844 139.660156 25.574219 140.828125 26.738281 C 141.996094 27.90625 143.105469 29.125 144.152344 30.402344 C 145.199219 31.675781 146.179688 33 147.097656 34.371094 C 148.015625 35.746094 148.863281 37.15625 149.644531 38.613281 C 150.421875 40.066406 151.125 41.558594 151.757812 43.082031 C 152.390625 44.605469 152.945312 46.15625 153.425781 47.734375 C 153.90625 49.3125 154.304688 50.914062 154.628906 52.53125 C 154.949219 54.148438 155.191406 55.777344 155.355469 57.421875 C 155.515625 59.0625 155.597656 60.707031 155.597656 62.359375 Z M 155.597656 62.359375 " fill-opacity="1" fill-rule="nonzero"/><g clip-path="url(#4679fc7e4c)"><path fill="#f2ce80" d="M 105.175781 116.878906 C 103.386719 116.878906 101.605469 116.789062 99.824219 116.617188 C 98.046875 116.441406 96.28125 116.179688 94.527344 115.832031 C 92.773438 115.480469 91.042969 115.046875 89.332031 114.53125 C 87.621094 114.011719 85.941406 113.410156 84.289062 112.726562 C 82.636719 112.042969 81.023438 111.28125 79.449219 110.441406 C 77.871094 109.597656 76.339844 108.679688 74.855469 107.691406 C 73.367188 106.699219 71.933594 105.636719 70.550781 104.503906 C 69.171875 103.371094 67.847656 102.171875 66.582031 100.910156 C 65.320312 99.648438 64.121094 98.324219 62.988281 96.945312 C 61.851562 95.566406 60.789062 94.132812 59.796875 92.648438 C 58.804688 91.164062 57.886719 89.632812 57.042969 88.058594 C 56.199219 86.484375 55.4375 84.871094 54.753906 83.222656 C 54.070312 81.570312 53.46875 79.894531 52.949219 78.183594 C 52.429688 76.476562 51.996094 74.746094 51.648438 72.992188 C 51.300781 71.242188 51.035156 69.480469 50.863281 67.703125 C 50.6875 65.925781 50.597656 64.144531 50.597656 62.359375 C 50.597656 60.570312 50.6875 58.789062 50.863281 57.015625 C 51.035156 55.238281 51.300781 53.472656 51.648438 51.722656 C 51.996094 49.96875 52.429688 48.238281 52.949219 46.53125 C 53.46875 44.824219 54.070312 43.144531 54.753906 41.492188 C 55.4375 39.84375 56.199219 38.230469 57.042969 36.65625 C 57.886719 35.082031 58.804688 33.550781 59.796875 32.066406 C 60.789062 30.582031 61.851562 29.152344 62.988281 27.769531 C 64.121094 26.390625 65.320312 25.070312 66.582031 23.804688 C 67.847656 22.542969 69.171875 21.347656 70.550781 20.214844 C 71.933594 19.082031 73.367188 18.019531 74.855469 17.027344 C 76.339844 16.035156 77.871094 15.117188 79.449219 14.273438 C 81.023438 13.433594 82.636719 12.671875 84.289062 11.988281 C 85.941406 11.304688 87.621094 10.703125 89.332031 10.183594 C 91.042969 9.667969 92.773438 9.234375 94.527344 8.886719 C 96.28125 8.535156 98.046875 8.273438 99.824219 8.101562 C 101.605469 7.925781 103.386719 7.835938 105.175781 7.835938 C 106.960938 7.835938 108.746094 7.925781 110.523438 8.101562 C 112.300781 8.273438 114.066406 8.535156 115.820312 8.886719 C 117.574219 9.234375 119.304688 9.667969 121.015625 10.183594 C 122.726562 10.703125 124.40625 11.304688 126.058594 11.988281 C 127.710938 12.671875 129.324219 13.433594 130.902344 14.273438 C 132.476562 15.117188 134.007812 16.035156 135.496094 17.027344 C 136.980469 18.019531 138.414062 19.082031 139.796875 20.214844 C 141.179688 21.347656 142.5 22.542969 143.765625 23.804688 C 145.027344 25.070312 146.226562 26.390625 147.363281 27.769531 C 148.496094 29.152344 149.558594 30.582031 150.550781 32.066406 C 151.542969 33.550781 152.460938 35.082031 153.304688 36.65625 C 154.148438 38.230469 154.910156 39.84375 155.59375 41.492188 C 156.277344 43.144531 156.878906 44.824219 157.398438 46.53125 C 157.917969 48.238281 158.351562 49.96875 158.699219 51.722656 C 159.050781 53.472656 159.3125 55.238281 159.488281 57.015625 C 159.660156 58.789062 159.75 60.570312 159.75 62.359375 C 159.746094 64.144531 159.65625 65.921875 159.480469 67.699219 C 159.304688 69.476562 159.039062 71.238281 158.691406 72.988281 C 158.339844 74.738281 157.90625 76.46875 157.386719 78.175781 C 156.867188 79.886719 156.261719 81.5625 155.578125 83.210938 C 154.894531 84.859375 154.128906 86.472656 153.285156 88.046875 C 152.445312 89.621094 151.527344 91.148438 150.53125 92.632812 C 149.539062 94.117188 148.476562 95.546875 147.34375 96.929688 C 146.207031 98.308594 145.011719 99.628906 143.746094 100.890625 C 142.484375 102.152344 141.160156 103.351562 139.78125 104.484375 C 138.398438 105.617188 136.964844 106.679688 135.480469 107.671875 C 133.996094 108.664062 132.464844 109.578125 130.886719 110.421875 C 129.3125 111.265625 127.699219 112.027344 126.050781 112.710938 C 124.398438 113.394531 122.71875 113.996094 121.007812 114.515625 C 119.300781 115.035156 117.570312 115.46875 115.816406 115.820312 C 114.066406 116.167969 112.300781 116.433594 110.523438 116.609375 C 108.742188 116.785156 106.960938 116.875 105.175781 116.878906 Z M 105.175781 16.132812 C 103.660156 16.132812 102.148438 16.207031 100.640625 16.355469 C 99.128906 16.503906 97.632812 16.726562 96.148438 17.023438 C 94.660156 17.316406 93.191406 17.683594 91.742188 18.125 C 90.292969 18.5625 88.867188 19.074219 87.46875 19.652344 C 86.066406 20.230469 84.699219 20.878906 83.363281 21.59375 C 82.027344 22.304688 80.726562 23.082031 79.46875 23.925781 C 78.207031 24.765625 76.992188 25.667969 75.820312 26.625 C 74.648438 27.585938 73.527344 28.601562 72.457031 29.671875 C 71.386719 30.742188 70.367188 31.863281 69.40625 33.035156 C 68.445312 34.203125 67.542969 35.417969 66.703125 36.675781 C 65.859375 37.9375 65.082031 39.234375 64.367188 40.566406 C 63.652344 41.902344 63.007812 43.269531 62.425781 44.667969 C 61.847656 46.066406 61.335938 47.492188 60.898438 48.941406 C 60.457031 50.386719 60.089844 51.855469 59.792969 53.339844 C 59.496094 54.824219 59.277344 56.320312 59.128906 57.828125 C 58.976562 59.332031 58.902344 60.84375 58.902344 62.359375 C 58.902344 63.871094 58.976562 65.382812 59.128906 66.886719 C 59.277344 68.394531 59.496094 69.890625 59.792969 71.375 C 60.089844 72.859375 60.457031 74.328125 60.898438 75.777344 C 61.335938 77.222656 61.847656 78.648438 62.425781 80.046875 C 63.007812 81.445312 63.652344 82.8125 64.367188 84.148438 C 65.082031 85.480469 65.859375 86.777344 66.703125 88.039062 C 67.542969 89.296875 68.445312 90.511719 69.40625 91.679688 C 70.367188 92.851562 71.386719 93.972656 72.457031 95.042969 C 73.527344 96.113281 74.648438 97.128906 75.820312 98.089844 C 76.992188 99.050781 78.207031 99.949219 79.46875 100.792969 C 80.726562 101.632812 82.027344 102.410156 83.363281 103.125 C 84.699219 103.835938 86.066406 104.484375 87.46875 105.0625 C 88.867188 105.640625 90.292969 106.152344 91.742188 106.589844 C 93.191406 107.03125 94.660156 107.398438 96.148438 107.691406 C 97.632812 107.988281 99.128906 108.210938 100.640625 108.359375 C 102.148438 108.507812 103.660156 108.582031 105.175781 108.582031 C 106.691406 108.582031 108.203125 108.507812 109.710938 108.359375 C 111.21875 108.210938 112.714844 107.988281 114.199219 107.691406 C 115.6875 107.398438 117.15625 107.03125 118.605469 106.589844 C 120.054688 106.152344 121.480469 105.640625 122.882812 105.0625 C 124.28125 104.484375 125.648438 103.835938 126.984375 103.125 C 128.320312 102.410156 129.621094 101.632812 130.878906 100.792969 C 132.140625 99.949219 133.355469 99.050781 134.527344 98.089844 C 135.699219 97.128906 136.820312 96.113281 137.890625 95.042969 C 138.964844 93.972656 139.980469 92.851562 140.941406 91.679688 C 141.902344 90.511719 142.804688 89.296875 143.644531 88.039062 C 144.488281 86.777344 145.265625 85.480469 145.980469 84.148438 C 146.695312 82.8125 147.34375 81.445312 147.921875 80.046875 C 148.503906 78.648438 149.011719 77.222656 149.453125 75.777344 C 149.890625 74.328125 150.257812 72.859375 150.554688 71.375 C 150.851562 69.890625 151.074219 68.394531 151.222656 66.886719 C 151.371094 65.382812 151.445312 63.871094 151.445312 62.359375 C 151.441406 60.84375 151.367188 59.335938 151.214844 57.828125 C 151.066406 56.324219 150.84375 54.828125 150.546875 53.34375 C 150.25 51.859375 149.882812 50.394531 149.441406 48.945312 C 149 47.496094 148.488281 46.074219 147.910156 44.675781 C 147.328125 43.277344 146.679688 41.914062 145.964844 40.578125 C 145.25 39.242188 144.472656 37.949219 143.628906 36.691406 C 142.789062 35.429688 141.886719 34.21875 140.925781 33.046875 C 139.964844 31.878906 138.949219 30.757812 137.875 29.6875 C 136.804688 28.617188 135.683594 27.601562 134.511719 26.640625 C 133.34375 25.683594 132.128906 24.78125 130.867188 23.941406 C 129.609375 23.097656 128.3125 22.320312 126.976562 21.609375 C 125.640625 20.894531 124.273438 20.246094 122.871094 19.667969 C 121.472656 19.085938 120.050781 18.578125 118.601562 18.136719 C 117.152344 17.695312 115.683594 17.328125 114.199219 17.03125 C 112.710938 16.734375 111.214844 16.511719 109.707031 16.363281 C 108.199219 16.210938 106.6875 16.136719 105.175781 16.132812 Z M 105.175781 16.132812 " fill-opacity="1" fill-rule="nonzero"/></g><path fill="#178768" d="M 118.296875 62.855469 C 116.578125 61.527344 114.695312 60.492188 112.652344 59.753906 C 110.605469 59.015625 108.5 58.609375 106.328125 58.53125 C 105.949219 58.417969 105.566406 58.359375 105.175781 58.355469 C 99.226562 58.355469 94.210938 54.578125 94.210938 50.058594 C 94.210938 45.535156 99.226562 41.824219 105.164062 41.8125 C 111.113281 41.8125 116.125 45.597656 116.125 50.058594 C 116.125 50.332031 116.152344 50.601562 116.207031 50.867188 C 116.257812 51.132812 116.339844 51.394531 116.441406 51.644531 C 116.546875 51.898438 116.675781 52.136719 116.828125 52.363281 C 116.976562 52.589844 117.148438 52.796875 117.34375 52.992188 C 117.535156 53.183594 117.746094 53.355469 117.972656 53.507812 C 118.199219 53.660156 118.4375 53.785156 118.691406 53.890625 C 118.941406 53.996094 119.203125 54.074219 119.46875 54.125 C 119.738281 54.179688 120.007812 54.207031 120.277344 54.207031 C 120.550781 54.207031 120.820312 54.179688 121.089844 54.125 C 121.355469 54.074219 121.617188 53.996094 121.867188 53.890625 C 122.121094 53.785156 122.359375 53.660156 122.585938 53.507812 C 122.8125 53.355469 123.023438 53.183594 123.214844 52.992188 C 123.410156 52.796875 123.582031 52.589844 123.730469 52.363281 C 123.882812 52.136719 124.011719 51.898438 124.117188 51.644531 C 124.21875 51.394531 124.296875 51.132812 124.351562 50.867188 C 124.40625 50.601562 124.433594 50.332031 124.433594 50.058594 C 124.433594 42.164062 117.945312 35.539062 109.304688 33.910156 L 109.304688 26.546875 C 109.304688 26.273438 109.28125 26.003906 109.226562 25.738281 C 109.171875 25.46875 109.09375 25.210938 108.988281 24.960938 C 108.886719 24.707031 108.757812 24.46875 108.605469 24.242188 C 108.453125 24.015625 108.28125 23.804688 108.089844 23.613281 C 107.898438 23.421875 107.6875 23.25 107.460938 23.097656 C 107.234375 22.945312 106.996094 22.820312 106.742188 22.714844 C 106.492188 22.609375 106.230469 22.53125 105.964844 22.476562 C 105.695312 22.425781 105.425781 22.398438 105.152344 22.398438 C 104.878906 22.398438 104.609375 22.425781 104.34375 22.476562 C 104.074219 22.53125 103.816406 22.609375 103.5625 22.714844 C 103.3125 22.820312 103.074219 22.945312 102.847656 23.097656 C 102.621094 23.25 102.410156 23.421875 102.21875 23.613281 C 102.023438 23.804688 101.851562 24.015625 101.699219 24.242188 C 101.550781 24.46875 101.421875 24.707031 101.316406 24.960938 C 101.210938 25.210938 101.132812 25.46875 101.082031 25.738281 C 101.027344 26.003906 101 26.273438 101 26.546875 L 101 33.972656 C 92.363281 35.609375 85.886719 42.269531 85.886719 50.121094 C 85.886719 58.832031 93.765625 65.976562 103.722656 66.609375 C 104.117188 66.742188 104.527344 66.8125 104.945312 66.816406 L 105.019531 66.816406 C 106.472656 66.769531 107.898438 66.964844 109.285156 67.402344 C 110.675781 67.839844 111.953125 68.496094 113.117188 69.367188 C 113.34375 69.519531 113.558594 69.683594 113.765625 69.863281 C 113.972656 70.039062 114.164062 70.230469 114.347656 70.429688 C 114.53125 70.632812 114.703125 70.84375 114.863281 71.066406 C 115.019531 71.285156 115.164062 71.515625 115.292969 71.753906 C 115.425781 71.996094 115.539062 72.242188 115.640625 72.492188 C 115.738281 72.746094 115.824219 73.003906 115.894531 73.265625 C 115.964844 73.53125 116.015625 73.796875 116.054688 74.066406 C 116.089844 74.335938 116.113281 74.605469 116.117188 74.878906 C 116.121094 75.152344 116.109375 75.421875 116.082031 75.691406 C 116.054688 75.964844 116.007812 76.230469 115.949219 76.496094 C 115.886719 76.761719 115.8125 77.023438 115.71875 77.277344 C 115.628906 77.535156 115.519531 77.785156 115.398438 78.027344 C 115.277344 78.269531 115.140625 78.503906 114.992188 78.734375 C 114.839844 78.960938 114.675781 79.175781 114.5 79.382812 C 114.324219 79.589844 114.136719 79.785156 113.933594 79.972656 C 113.734375 80.15625 113.523438 80.328125 113.304688 80.484375 C 112.167969 81.402344 110.914062 82.105469 109.539062 82.589844 C 108.164062 83.074219 106.746094 83.3125 105.289062 83.308594 C 99.351562 83.378906 94.261719 79.71875 94.191406 75.238281 C 94.1875 74.964844 94.15625 74.695312 94.097656 74.429688 C 94.039062 74.164062 93.957031 73.90625 93.847656 73.65625 C 93.738281 73.40625 93.605469 73.167969 93.453125 72.945312 C 93.296875 72.71875 93.121094 72.511719 92.925781 72.324219 C 92.726562 72.132812 92.515625 71.964844 92.285156 71.816406 C 92.054688 71.671875 91.816406 71.546875 91.5625 71.445312 C 91.308594 71.347656 91.046875 71.273438 90.777344 71.222656 C 90.507812 71.175781 90.238281 71.152344 89.964844 71.160156 C 89.691406 71.164062 89.421875 71.195312 89.15625 71.253906 C 88.890625 71.308594 88.632812 71.394531 88.378906 71.503906 C 88.128906 71.613281 87.894531 71.742188 87.667969 71.898438 C 87.445312 72.054688 87.238281 72.230469 87.050781 72.425781 C 86.859375 72.621094 86.691406 72.835938 86.542969 73.066406 C 86.394531 73.292969 86.273438 73.535156 86.171875 73.789062 C 86.074219 74.042969 86 74.304688 85.949219 74.574219 C 85.902344 74.839844 85.878906 75.109375 85.886719 75.382812 C 86.011719 83.191406 92.46875 89.652344 101 91.230469 L 101 98.148438 C 101 98.421875 101.027344 98.691406 101.082031 98.957031 C 101.132812 99.222656 101.210938 99.484375 101.316406 99.734375 C 101.421875 99.988281 101.550781 100.226562 101.699219 100.453125 C 101.851562 100.679688 102.023438 100.886719 102.21875 101.082031 C 102.410156 101.273438 102.621094 101.445312 102.847656 101.597656 C 103.074219 101.75 103.3125 101.875 103.5625 101.980469 C 103.816406 102.085938 104.074219 102.164062 104.34375 102.214844 C 104.609375 102.269531 104.878906 102.296875 105.152344 102.296875 C 105.425781 102.296875 105.695312 102.269531 105.964844 102.214844 C 106.230469 102.164062 106.492188 102.085938 106.742188 101.980469 C 106.996094 101.875 107.234375 101.75 107.460938 101.597656 C 107.6875 101.445312 107.898438 101.273438 108.089844 101.082031 C 108.28125 100.886719 108.453125 100.679688 108.605469 100.453125 C 108.757812 100.226562 108.886719 99.988281 108.988281 99.734375 C 109.09375 99.484375 109.171875 99.222656 109.226562 98.957031 C 109.28125 98.691406 109.304688 98.421875 109.304688 98.148438 L 109.304688 91.199219 C 112.804688 90.554688 115.921875 89.09375 118.648438 86.8125 C 119.105469 86.457031 119.535156 86.074219 119.949219 85.667969 C 120.359375 85.261719 120.742188 84.832031 121.105469 84.378906 C 121.464844 83.929688 121.800781 83.460938 122.105469 82.96875 C 122.414062 82.480469 122.691406 81.976562 122.941406 81.453125 C 123.1875 80.929688 123.40625 80.398438 123.59375 79.851562 C 123.78125 79.304688 123.933594 78.75 124.058594 78.183594 C 124.179688 77.621094 124.269531 77.050781 124.328125 76.476562 C 124.382812 75.898438 124.410156 75.324219 124.398438 74.746094 C 124.390625 74.167969 124.347656 73.59375 124.269531 73.019531 C 124.195312 72.449219 124.085938 71.882812 123.945312 71.320312 C 123.804688 70.761719 123.628906 70.210938 123.425781 69.671875 C 123.222656 69.132812 122.984375 68.605469 122.71875 68.089844 C 122.453125 67.578125 122.160156 67.082031 121.835938 66.601562 C 121.515625 66.125 121.164062 65.664062 120.789062 65.226562 C 120.414062 64.785156 120.015625 64.371094 119.589844 63.976562 C 119.167969 63.585938 118.722656 63.21875 118.253906 62.875 Z M 118.296875 62.855469 " fill-opacity="1" fill-rule="nonzero"/></svg>