<svg xmlns="http://www.w3.org/2000/svg" xmlns:xlink="http://www.w3.org/1999/xlink" width="500" zoomAndPan="magnify" viewBox="0 0 375 374.999991" height="500" preserveAspectRatio="xMidYMid meet" version="1.0"><defs><clipPath id="cd705e24be"><path d="M 2.8125 316 L 67 316 L 67 375 L 2.8125 375 Z M 2.8125 316 " clip-rule="nonzero"/></clipPath><clipPath id="cf6c94b4b8"><path d="M 299 126 L 372.5625 126 L 372.5625 200 L 299 200 Z M 299 126 " clip-rule="nonzero"/></clipPath></defs><path fill="#bddeff" d="M 69.785156 37.898438 C 71.773438 48.238281 77.570312 63.753906 94.445312 69.722656 C 95.179688 69.988281 95.558594 70.796875 95.296875 71.527344 C 95.148438 71.933594 94.824219 72.253906 94.410156 72.386719 C 80.820312 76.550781 70.691406 87.9375 68.148438 101.90625 C 67.988281 102.671875 67.238281 103.160156 66.472656 103 C 65.964844 102.890625 65.554688 102.515625 65.410156 102.015625 C 62.839844 92.972656 56.484375 79.460938 40.882812 72.597656 C 40.171875 72.285156 39.84375 71.457031 40.15625 70.742188 C 40.3125 70.378906 40.617188 70.101562 40.988281 69.972656 C 47.890625 67.574219 61.5625 60.105469 67.023438 37.816406 C 67.214844 37.0625 67.984375 36.601562 68.742188 36.792969 C 69.273438 36.925781 69.679688 37.359375 69.785156 37.898438 Z M 69.785156 37.898438 " fill-opacity="1" fill-rule="nonzero"/><path fill="#3d4056" d="M 329.753906 0.0195312 L 269.9375 35.042969 L 286.804688 45.695312 L 190.019531 194.351562 L 102.730469 143.632812 C 97.339844 140.503906 90.4375 142.144531 87.039062 147.367188 L 14.691406 258.5 L 34.300781 271.238281 L 100.585938 169.429688 L 187.875 220.148438 C 193.265625 223.28125 200.167969 221.640625 203.566406 216.417969 L 306.578125 58.191406 L 323.710938 69.015625 Z M 329.753906 0.0195312 " fill-opacity="1" fill-rule="nonzero"/><g clip-path="url(#cd705e24be)"><path fill="#ffb655" d="M 60.234375 316.554688 L 9.09375 316.554688 C 5.625 316.550781 2.8125 319.359375 2.808594 322.820312 C 2.808594 322.824219 2.808594 322.824219 2.808594 322.824219 L 2.808594 339.496094 C 2.808594 342.957031 5.621094 345.765625 9.089844 345.765625 C 5.621094 345.765625 2.808594 348.574219 2.808594 352.039062 L 2.808594 368.710938 C 2.808594 372.171875 5.621094 374.980469 9.089844 374.980469 L 60.234375 374.980469 C 63.703125 374.980469 66.515625 372.171875 66.515625 368.710938 L 66.515625 352.039062 C 66.515625 348.574219 63.703125 345.765625 60.234375 345.765625 C 63.703125 345.765625 66.515625 342.957031 66.515625 339.496094 L 66.515625 322.824219 C 66.515625 319.359375 63.703125 316.554688 60.234375 316.554688 Z M 60.234375 316.554688 " fill-opacity="1" fill-rule="nonzero"/></g><path fill="#ffb655" d="M 217.925781 258.125 L 166.78125 258.125 C 163.316406 258.128906 160.507812 260.9375 160.507812 264.398438 L 160.507812 281.070312 C 160.507812 284.535156 163.320312 287.339844 166.785156 287.339844 C 163.320312 287.339844 160.507812 290.148438 160.507812 293.613281 C 160.507812 293.613281 160.507812 293.613281 160.507812 293.617188 L 160.507812 310.28125 C 160.507812 313.746094 163.316406 316.554688 166.785156 316.554688 C 163.320312 316.554688 160.507812 319.359375 160.507812 322.824219 L 160.507812 339.496094 C 160.507812 342.957031 163.320312 345.765625 166.785156 345.765625 C 163.320312 345.765625 160.507812 348.574219 160.507812 352.039062 L 160.507812 368.710938 C 160.507812 372.171875 163.320312 374.980469 166.785156 374.980469 L 217.929688 374.980469 C 221.398438 374.980469 224.210938 372.171875 224.210938 368.710938 L 224.210938 352.039062 C 224.210938 348.574219 221.398438 345.765625 217.929688 345.765625 C 221.398438 345.765625 224.210938 342.957031 224.210938 339.496094 L 224.210938 322.824219 C 224.210938 319.359375 221.398438 316.554688 217.929688 316.554688 C 221.398438 316.554688 224.207031 313.746094 224.210938 310.28125 L 224.210938 293.617188 C 224.210938 290.152344 221.398438 287.34375 217.929688 287.34375 C 221.398438 287.34375 224.210938 284.535156 224.210938 281.070312 L 224.210938 264.398438 C 224.210938 260.933594 221.402344 258.125 217.933594 258.125 C 217.929688 258.125 217.929688 258.125 217.925781 258.125 Z M 217.925781 258.125 " fill-opacity="1" fill-rule="nonzero"/><path fill="#ffb655" d="M 367.808594 222.636719 L 367.808594 205.964844 C 367.808594 202.5 364.996094 199.691406 361.53125 199.691406 L 310.390625 199.691406 C 306.921875 199.691406 304.109375 202.5 304.109375 205.964844 L 304.109375 222.636719 C 304.109375 226.097656 306.921875 228.90625 310.390625 228.90625 C 306.921875 228.90625 304.109375 231.714844 304.109375 235.179688 L 304.109375 251.847656 C 304.109375 255.3125 306.921875 258.121094 310.386719 258.121094 C 310.386719 258.121094 310.386719 258.121094 310.390625 258.121094 C 306.921875 258.121094 304.109375 260.929688 304.109375 264.394531 L 304.109375 281.0625 C 304.109375 284.527344 306.921875 287.335938 310.390625 287.335938 C 306.921875 287.335938 304.109375 290.140625 304.109375 293.605469 L 304.109375 310.28125 C 304.109375 313.742188 306.921875 316.550781 310.386719 316.550781 C 310.386719 316.550781 310.386719 316.550781 310.390625 316.550781 C 306.921875 316.550781 304.109375 319.359375 304.109375 322.824219 L 304.109375 339.492188 C 304.109375 342.957031 306.921875 345.765625 310.390625 345.765625 C 306.921875 345.765625 304.109375 348.574219 304.109375 352.039062 L 304.109375 368.707031 C 304.109375 372.171875 306.921875 374.980469 310.390625 374.980469 L 361.535156 374.980469 C 365 374.976562 367.808594 372.171875 367.808594 368.707031 L 367.808594 352.039062 C 367.808594 348.574219 364.996094 345.765625 361.53125 345.765625 C 364.996094 345.765625 367.808594 342.957031 367.808594 339.492188 L 367.808594 322.824219 C 367.808594 319.359375 364.996094 316.550781 361.53125 316.550781 C 364.996094 316.550781 367.808594 313.746094 367.808594 310.28125 L 367.808594 293.613281 C 367.808594 290.148438 364.996094 287.34375 361.53125 287.34375 C 364.996094 287.34375 367.808594 284.535156 367.808594 281.070312 C 367.808594 281.066406 367.808594 281.066406 367.808594 281.066406 L 367.808594 264.398438 C 367.808594 260.933594 364.996094 258.125 361.53125 258.125 C 364.996094 258.125 367.808594 255.316406 367.808594 251.855469 C 367.808594 251.855469 367.808594 251.851562 367.808594 251.851562 L 367.808594 235.183594 C 367.808594 231.71875 364.996094 228.910156 361.53125 228.910156 C 364.996094 228.910156 367.808594 226.101562 367.808594 222.636719 Z M 367.808594 222.636719 " fill-opacity="1" fill-rule="nonzero"/><path fill="#e87b31" d="M 361.53125 199.695312 L 351.742188 199.695312 L 351.742188 374.980469 L 361.53125 374.980469 C 365 374.980469 367.808594 372.171875 367.808594 368.710938 L 367.808594 352.039062 C 367.808594 348.574219 364.996094 345.765625 361.527344 345.765625 C 364.996094 345.765625 367.808594 342.960938 367.808594 339.496094 L 367.808594 322.824219 C 367.808594 319.363281 364.996094 316.554688 361.527344 316.554688 C 364.996094 316.554688 367.804688 313.746094 367.808594 310.285156 C 367.808594 310.28125 367.808594 310.28125 367.808594 310.28125 L 367.808594 293.617188 C 367.808594 290.152344 364.996094 287.34375 361.527344 287.34375 C 364.996094 287.34375 367.808594 284.535156 367.808594 281.070312 C 367.808594 281.070312 367.808594 281.070312 367.808594 281.066406 L 367.808594 264.398438 C 367.808594 260.933594 364.996094 258.125 361.527344 258.125 C 364.996094 258.128906 367.804688 255.320312 367.808594 251.855469 L 367.808594 235.183594 C 367.804688 231.71875 364.996094 228.910156 361.527344 228.910156 C 364.996094 228.910156 367.808594 226.101562 367.808594 222.636719 L 367.808594 205.964844 C 367.804688 202.503906 364.996094 199.699219 361.53125 199.695312 Z M 361.53125 199.695312 " fill-opacity="1" fill-rule="nonzero"/><path fill="#e87b31" d="M 217.925781 258.125 L 208.136719 258.125 L 208.136719 374.980469 L 217.925781 374.980469 C 221.394531 374.980469 224.203125 372.175781 224.203125 368.710938 L 224.203125 352.039062 C 224.203125 348.574219 221.394531 345.765625 217.925781 345.765625 C 221.394531 345.765625 224.203125 342.960938 224.203125 339.496094 L 224.203125 322.824219 C 224.203125 319.363281 221.394531 316.554688 217.925781 316.554688 C 221.390625 316.554688 224.203125 313.746094 224.203125 310.285156 C 224.203125 310.28125 224.203125 310.28125 224.203125 310.28125 L 224.203125 293.617188 C 224.203125 290.152344 221.394531 287.34375 217.925781 287.34375 C 221.394531 287.34375 224.203125 284.535156 224.203125 281.070312 L 224.203125 264.398438 C 224.207031 260.9375 221.394531 258.125 217.929688 258.125 C 217.929688 258.125 217.925781 258.125 217.925781 258.125 Z M 217.925781 258.125 " fill-opacity="1" fill-rule="nonzero"/><path fill="#e87b31" d="M 60.234375 316.554688 L 50.445312 316.554688 L 50.445312 374.988281 L 60.234375 374.988281 C 63.703125 374.988281 66.515625 372.179688 66.515625 368.714844 L 66.515625 352.039062 C 66.515625 348.574219 63.703125 345.765625 60.234375 345.765625 C 63.703125 345.765625 66.515625 342.960938 66.515625 339.496094 L 66.515625 322.824219 C 66.515625 319.359375 63.703125 316.554688 60.234375 316.554688 Z M 60.234375 316.554688 " fill-opacity="1" fill-rule="nonzero"/><g clip-path="url(#cf6c94b4b8)"><path fill="#ffb655" d="M 372.484375 163.210938 C 372.484375 164.40625 372.425781 165.597656 372.308594 166.789062 C 372.191406 167.976562 372.015625 169.15625 371.78125 170.328125 C 371.550781 171.5 371.257812 172.660156 370.910156 173.800781 C 370.5625 174.945312 370.160156 176.070312 369.703125 177.175781 C 369.246094 178.277344 368.734375 179.355469 368.171875 180.410156 C 367.609375 181.464844 366.992188 182.488281 366.328125 183.480469 C 365.664062 184.476562 364.953125 185.433594 364.195312 186.359375 C 363.433594 187.28125 362.632812 188.164062 361.785156 189.011719 C 360.941406 189.855469 360.054688 190.65625 359.128906 191.414062 C 358.207031 192.171875 357.246094 192.882812 356.25 193.546875 C 355.257812 194.210938 354.234375 194.824219 353.175781 195.390625 C 352.121094 195.953125 351.042969 196.464844 349.9375 196.921875 C 348.832031 197.378906 347.707031 197.78125 346.5625 198.125 C 345.417969 198.472656 344.257812 198.761719 343.085938 198.996094 C 341.914062 199.230469 340.730469 199.40625 339.539062 199.523438 C 338.351562 199.640625 337.15625 199.699219 335.960938 199.699219 C 334.765625 199.699219 333.570312 199.640625 332.378906 199.523438 C 331.191406 199.40625 330.007812 199.230469 328.835938 198.996094 C 327.660156 198.761719 326.503906 198.472656 325.359375 198.125 C 324.214844 197.78125 323.089844 197.378906 321.984375 196.921875 C 320.878906 196.464844 319.796875 195.953125 318.742188 195.390625 C 317.6875 194.824219 316.664062 194.210938 315.667969 193.546875 C 314.675781 192.882812 313.714844 192.171875 312.789062 191.414062 C 311.867188 190.65625 310.980469 189.855469 310.132812 189.011719 C 309.289062 188.164062 308.488281 187.28125 307.726562 186.359375 C 306.96875 185.433594 306.257812 184.476562 305.59375 183.480469 C 304.929688 182.488281 304.3125 181.464844 303.75 180.410156 C 303.1875 179.355469 302.675781 178.277344 302.21875 177.175781 C 301.757812 176.070312 301.355469 174.945312 301.007812 173.800781 C 300.664062 172.660156 300.371094 171.5 300.140625 170.328125 C 299.90625 169.15625 299.730469 167.976562 299.613281 166.789062 C 299.496094 165.597656 299.4375 164.40625 299.4375 163.210938 C 299.4375 162.015625 299.496094 160.824219 299.613281 159.636719 C 299.730469 158.445312 299.90625 157.265625 300.140625 156.09375 C 300.371094 154.921875 300.664062 153.761719 301.007812 152.621094 C 301.355469 151.476562 301.757812 150.351562 302.21875 149.25 C 302.675781 148.144531 303.1875 147.066406 303.75 146.011719 C 304.3125 144.957031 304.929688 143.933594 305.59375 142.941406 C 306.257812 141.945312 306.96875 140.988281 307.726562 140.0625 C 308.488281 139.140625 309.289062 138.257812 310.132812 137.410156 C 310.980469 136.566406 311.867188 135.765625 312.789062 135.007812 C 313.714844 134.25 314.675781 133.539062 315.667969 132.875 C 316.664062 132.210938 317.6875 131.597656 318.742188 131.03125 C 319.796875 130.46875 320.878906 129.960938 321.984375 129.503906 C 323.089844 129.042969 324.214844 128.644531 325.359375 128.296875 C 326.503906 127.949219 327.660156 127.660156 328.835938 127.425781 C 330.007812 127.191406 331.191406 127.015625 332.378906 126.898438 C 333.570312 126.785156 334.765625 126.726562 335.960938 126.726562 C 337.15625 126.726562 338.351562 126.785156 339.539062 126.898438 C 340.730469 127.015625 341.914062 127.191406 343.085938 127.425781 C 344.257812 127.660156 345.417969 127.949219 346.5625 128.296875 C 347.707031 128.644531 348.832031 129.042969 349.9375 129.503906 C 351.042969 129.960938 352.121094 130.46875 353.175781 131.03125 C 354.234375 131.597656 355.257812 132.210938 356.25 132.875 C 357.246094 133.539062 358.207031 134.25 359.128906 135.007812 C 360.054688 135.765625 360.941406 136.566406 361.785156 137.410156 C 362.632812 138.257812 363.433594 139.140625 364.195312 140.0625 C 364.953125 140.988281 365.664062 141.945312 366.328125 142.941406 C 366.992188 143.933594 367.609375 144.957031 368.171875 146.011719 C 368.734375 147.066406 369.246094 148.144531 369.703125 149.25 C 370.160156 150.351562 370.5625 151.476562 370.910156 152.621094 C 371.257812 153.761719 371.550781 154.921875 371.78125 156.09375 C 372.015625 157.265625 372.191406 158.445312 372.308594 159.636719 C 372.425781 160.824219 372.484375 162.015625 372.484375 163.210938 Z M 372.484375 163.210938 " fill-opacity="1" fill-rule="nonzero"/></g><path fill="#bddeff" d="M 123.566406 66.972656 L 123.515625 66.972656 L 121.683594 66.992188 C 119.421875 67.007812 117.601562 68.847656 117.613281 71.109375 C 117.628906 73.367188 119.472656 75.1875 121.734375 75.175781 L 121.78125 75.175781 L 123.613281 75.152344 C 125.875 75.140625 127.699219 73.296875 127.683594 71.039062 C 127.671875 68.78125 125.828125 66.960938 123.566406 66.972656 Z M 123.566406 66.972656 " fill-opacity="1" fill-rule="nonzero"/><path fill="#ffffff" d="M 339.472656 182.59375 L 332.785156 182.59375 C 328.152344 182.597656 323.964844 179.828125 322.164062 175.5625 C 321.285156 173.480469 322.257812 171.078125 324.339844 170.199219 C 326.425781 169.320312 328.828125 170.292969 329.707031 172.375 C 330.230469 173.609375 331.441406 174.414062 332.785156 174.410156 L 339.472656 174.410156 C 341.4375 174.375 343.003906 172.753906 342.964844 170.792969 C 342.933594 168.878906 341.386719 167.335938 339.472656 167.300781 L 333.007812 167.300781 C 326.515625 167.234375 321.308594 161.929688 321.375 155.449219 C 321.4375 149.054688 326.609375 143.890625 333.007812 143.828125 L 339.691406 143.828125 C 344.574219 143.832031 348.921875 146.902344 350.558594 151.496094 C 351.316406 153.625 350.199219 155.964844 348.066406 156.71875 C 345.933594 157.472656 343.59375 156.359375 342.839844 154.226562 C 342.363281 152.898438 341.105469 152.007812 339.691406 152.007812 L 333.003906 152.007812 C 331.039062 152.042969 329.472656 153.664062 329.507812 155.628906 C 329.542969 157.542969 331.085938 159.085938 333.003906 159.117188 L 339.46875 159.117188 C 345.957031 159.183594 351.164062 164.488281 351.101562 170.972656 C 351.039062 177.363281 345.867188 182.527344 339.46875 182.59375 Z M 339.472656 182.59375 " fill-opacity="1" fill-rule="nonzero"/><path fill="#ffffff" d="M 336.238281 152.007812 C 333.976562 152.007812 332.144531 150.175781 332.144531 147.917969 L 332.144531 142.855469 C 332.144531 140.597656 333.976562 138.765625 336.238281 138.765625 C 338.5 138.765625 340.332031 140.597656 340.332031 142.855469 L 340.332031 147.921875 C 340.332031 150.179688 338.496094 152.007812 336.238281 152.007812 Z M 336.238281 152.007812 " fill-opacity="1" fill-rule="nonzero"/><path fill="#ffffff" d="M 336.238281 187.660156 C 333.976562 187.660156 332.144531 185.828125 332.144531 183.570312 L 332.144531 178.5 C 332.144531 176.242188 333.976562 174.410156 336.238281 174.410156 C 338.5 174.410156 340.332031 176.242188 340.332031 178.5 L 340.332031 183.566406 C 340.332031 185.824219 338.5 187.65625 336.238281 187.660156 Z M 336.238281 187.660156 " fill-opacity="1" fill-rule="nonzero"/><path fill="#e87b31" d="M 318.441406 225.996094 L 355.449219 225.996094 L 355.449219 231.273438 L 318.441406 231.273438 C 316.980469 231.273438 315.796875 230.09375 315.796875 228.632812 C 315.796875 227.175781 316.980469 225.996094 318.441406 225.996094 Z M 318.441406 225.996094 " fill-opacity="1" fill-rule="nonzero"/><path fill="#e87b31" d="M 318.441406 255.644531 L 355.449219 255.644531 L 355.449219 260.921875 L 318.441406 260.921875 C 316.980469 260.921875 315.796875 259.742188 315.796875 258.28125 C 315.796875 256.824219 316.980469 255.644531 318.441406 255.644531 Z M 318.441406 255.644531 " fill-opacity="1" fill-rule="nonzero"/><path fill="#e87b31" d="M 318.441406 284.332031 L 355.449219 284.332031 L 355.449219 289.613281 L 318.441406 289.613281 C 316.980469 289.613281 315.796875 288.429688 315.796875 286.972656 C 315.796875 285.515625 316.980469 284.332031 318.441406 284.332031 Z M 318.441406 284.332031 " fill-opacity="1" fill-rule="nonzero"/><path fill="#e87b31" d="M 318.441406 313.980469 L 355.449219 313.980469 L 355.449219 319.257812 L 318.441406 319.257812 C 316.980469 319.257812 315.796875 318.078125 315.796875 316.621094 C 315.796875 315.160156 316.980469 313.980469 318.441406 313.980469 Z M 318.441406 313.980469 " fill-opacity="1" fill-rule="nonzero"/><path fill="#e87b31" d="M 318.441406 343.628906 L 355.449219 343.628906 L 355.449219 348.90625 L 318.441406 348.90625 C 316.980469 348.90625 315.796875 347.726562 315.796875 346.265625 C 315.796875 344.808594 316.980469 343.628906 318.441406 343.628906 Z M 318.441406 343.628906 " fill-opacity="1" fill-rule="nonzero"/><path fill="#e87b31" d="M 175.167969 284.332031 L 212.179688 284.332031 L 212.179688 289.613281 L 175.167969 289.613281 C 173.710938 289.613281 172.527344 288.429688 172.527344 286.972656 C 172.527344 285.515625 173.710938 284.332031 175.167969 284.332031 Z M 175.167969 284.332031 " fill-opacity="1" fill-rule="nonzero"/><path fill="#e87b31" d="M 175.167969 313.980469 L 212.179688 313.980469 L 212.179688 319.257812 L 175.167969 319.257812 C 173.710938 319.257812 172.527344 318.078125 172.527344 316.621094 C 172.527344 315.160156 173.710938 313.980469 175.167969 313.980469 Z M 175.167969 313.980469 " fill-opacity="1" fill-rule="nonzero"/><path fill="#e87b31" d="M 175.167969 343.628906 L 212.179688 343.628906 L 212.179688 348.90625 L 175.167969 348.90625 C 173.710938 348.90625 172.527344 347.726562 172.527344 346.265625 C 172.527344 344.808594 173.710938 343.628906 175.167969 343.628906 Z M 175.167969 343.628906 " fill-opacity="1" fill-rule="nonzero"/><path fill="#e87b31" d="M 17.480469 343.628906 L 54.488281 343.628906 L 54.488281 348.90625 L 17.480469 348.90625 C 16.019531 348.90625 14.835938 347.726562 14.835938 346.265625 C 14.835938 344.808594 16.019531 343.628906 17.480469 343.628906 Z M 17.480469 343.628906 " fill-opacity="1" fill-rule="nonzero"/></svg>