<svg width="40" height="28" viewBox="0 0 40 28" fill="none" xmlns="http://www.w3.org/2000/svg">
<path d="M2.22222 28C1.59259 28 1.06519 27.776 0.64 27.328C0.213334 26.8816 0 26.3278 0 25.6667C0 25.0056 0.213334 24.4518 0.64 24.0053C1.06519 23.5573 1.59259 23.3333 2.22222 23.3333H37.7778C38.4074 23.3333 38.9348 23.5573 39.36 24.0053C39.7867 24.4518 40 25.0056 40 25.6667C40 26.3278 39.7867 26.8816 39.36 27.328C38.9348 27.776 38.4074 28 37.7778 28H2.22222ZM2.22222 16.3333C1.59259 16.3333 1.06519 16.1093 0.64 15.6613C0.213334 15.2149 0 14.6611 0 14C0 13.3389 0.213334 12.7843 0.64 12.3363C1.06519 11.8899 1.59259 11.6667 2.22222 11.6667H37.7778C38.4074 11.6667 38.9348 11.8899 39.36 12.3363C39.7867 12.7843 40 13.3389 40 14C40 14.6611 39.7867 15.2149 39.36 15.6613C38.9348 16.1093 38.4074 16.3333 37.7778 16.3333H2.22222ZM2.22222 4.66667C1.59259 4.66667 1.06519 4.44344 0.64 3.997C0.213334 3.549 0 2.99444 0 2.33333C0 1.67222 0.213334 1.11767 0.64 0.669667C1.06519 0.223223 1.59259 0 2.22222 0H37.7778C38.4074 0 38.9348 0.223223 39.36 0.669667C39.7867 1.11767 40 1.67222 40 2.33333C40 2.99444 39.7867 3.549 39.36 3.997C38.9348 4.44344 38.4074 4.66667 37.7778 4.66667H2.22222Z" fill="white"/>
</svg>
