<svg width="32" height="32" viewBox="0 0 32 32" fill="none" xmlns="http://www.w3.org/2000/svg">
<path d="M29.2461 2.93604H2.7539C1.511 2.93604 0.5 3.94724 0.5 5.18994V26.81C0.5 28.0527 1.511 29.0639 2.7539 29.0639H29.2461C30.489 29.0639 31.5 28.0527 31.5 26.81V5.18994C31.5 3.94724 30.489 2.93604 29.2461 2.93604ZM2.7539 3.93604H29.2461C29.9375 3.93604 30.5 4.49854 30.5 5.18994V8.63429H1.5V5.18994C1.5 4.49854 2.0625 3.93604 2.7539 3.93604ZM29.2461 28.0639H2.7539C2.0625 28.0639 1.5 27.5014 1.5 26.81V9.63429H30.5V26.8101C30.5 27.5014 29.9375 28.0639 29.2461 28.0639Z" fill="white"/>
<path d="M23.3618 7.89212C24.249 7.89212 24.9707 7.17142 24.9707 6.28517C24.9707 5.39797 24.249 4.67627 23.3618 4.67627C22.4746 4.67627 21.7529 5.39797 21.7529 6.28517C21.753 7.17142 22.4746 7.89212 23.3618 7.89212ZM23.3618 5.67627C23.6975 5.67627 23.9707 5.94922 23.9707 6.28517C23.9707 6.61962 23.6975 6.89212 23.3618 6.89212C23.0261 6.89212 22.7529 6.61967 22.7529 6.28517C22.753 5.94922 23.0261 5.67627 23.3618 5.67627Z" fill="white"/>
<path d="M18.9641 7.89212C19.8513 7.89212 20.573 7.17142 20.573 6.28517C20.573 5.39797 19.8513 4.67627 18.9641 4.67627C18.0772 4.67627 17.3555 5.39797 17.3555 6.28517C17.3555 7.17142 18.0772 7.89212 18.9641 7.89212ZM18.9641 5.67627C19.2998 5.67627 19.573 5.94922 19.573 6.28517C19.573 6.61962 19.2998 6.89212 18.9641 6.89212C18.6284 6.89212 18.3555 6.61967 18.3555 6.28517C18.3555 5.94922 18.6284 5.67627 18.9641 5.67627Z" fill="white"/>
<path d="M27.7593 7.89212C28.6462 7.89212 29.3679 7.17142 29.3679 6.28517C29.3679 5.39797 28.6462 4.67627 27.7593 4.67627C26.8721 4.67627 26.1504 5.39797 26.1504 6.28517C26.1504 7.17142 26.872 7.89212 27.7593 7.89212ZM27.7593 5.67627C28.095 5.67627 28.3679 5.94922 28.3679 6.28517C28.3679 6.61962 28.095 6.89212 27.7593 6.89212C27.4236 6.89212 27.1504 6.61967 27.1504 6.28517C27.1504 5.94922 27.4236 5.67627 27.7593 5.67627Z" fill="white"/>
<path d="M3.48222 11.708C3.26127 11.8736 3.21657 12.187 3.38237 12.4077L3.38752 12.4146C3.48492 12.5449 3.63287 12.6128 3.78302 12.6128C3.88777 12.6128 3.99397 12.5796 4.08477 12.5113C4.30572 12.3457 4.34797 12.0289 4.18217 11.8081C4.01687 11.5869 3.70387 11.5425 3.48222 11.708Z" fill="white"/>
<path d="M3.63751 15.746C3.74226 15.746 3.84846 15.7128 3.93926 15.6445C4.16021 15.4789 4.20246 15.1621 4.03666 14.9413C3.87111 14.7201 3.55861 14.6757 3.33671 14.8412C3.11576 15.0068 3.07106 15.3202 3.23686 15.5409L3.24201 15.5478C3.33941 15.6781 3.48736 15.746 3.63751 15.746Z" fill="white"/>
<path d="M3.24201 18.6928C3.33941 18.8232 3.48736 18.8911 3.63751 18.8911C3.74226 18.8911 3.84846 18.8579 3.93926 18.7895C4.16021 18.624 4.20246 18.3071 4.03666 18.0864C3.87111 17.8652 3.55861 17.8212 3.33671 17.9863C3.11576 18.1518 3.07106 18.4653 3.23686 18.686L3.24201 18.6928Z" fill="white"/>
<path d="M3.24201 21.961C3.33941 22.0913 3.48736 22.1592 3.63751 22.1592C3.74226 22.1592 3.84846 22.126 3.93926 22.0577C4.16021 21.8921 4.20246 21.5753 4.03666 21.3545C3.87111 21.1333 3.55861 21.0889 3.33671 21.2544C3.11576 21.42 3.07106 21.7334 3.23686 21.9541L3.24201 21.961Z" fill="white"/>
<path d="M3.38487 24.2388C3.14632 24.3779 3.06577 24.6841 3.20492 24.9229L3.21007 24.9317C3.30237 25.0899 3.46692 25.1768 3.63682 25.1768C3.72302 25.1768 3.81087 25.1543 3.89122 25.1074C4.12977 24.9683 4.20787 24.6577 4.06872 24.4189C3.92957 24.1812 3.62412 24.1006 3.38487 24.2388Z" fill="white"/>
<path d="M22.0308 22.1699C21.8574 21.955 21.5425 21.9218 21.3276 22.0957L19.8066 23.3257C19.6892 23.4204 19.6211 23.5635 19.6211 23.7143C19.6211 23.8657 19.6894 24.0083 19.8069 24.1035L21.3279 25.332C21.4204 25.4067 21.5315 25.4428 21.6418 25.4428C21.7876 25.4428 21.9324 25.3793 22.031 25.2568C22.2046 25.0419 22.1711 24.7275 21.9563 24.5536L20.9165 23.7143L21.9565 22.873C22.1712 22.6997 22.2046 22.3847 22.0308 22.1699Z" fill="white"/>
<path d="M24.1503 22.0131C23.8893 21.9208 23.6039 22.0561 23.5116 22.3163L22.6356 24.7748C22.5429 25.0351 22.6786 25.3212 22.9388 25.414C22.9942 25.4335 23.0509 25.4428 23.1065 25.4428C23.3121 25.4428 23.5047 25.3153 23.5775 25.1107L24.4535 22.6522C24.5463 22.392 24.4105 22.1059 24.1503 22.0131Z" fill="white"/>
<path d="M25.7549 22.0957C25.5403 21.9214 25.2256 21.9556 25.0516 22.1699C24.878 22.3848 24.9114 22.6997 25.126 22.8731L26.1661 23.7144L25.1263 24.5537C24.9114 24.7276 24.878 25.042 25.0516 25.2569C25.1502 25.3794 25.295 25.4429 25.4407 25.4429C25.5511 25.4429 25.6622 25.4068 25.7547 25.3321L27.2759 24.1036C27.3934 24.0084 27.4617 23.8658 27.4617 23.7144C27.4617 23.5635 27.3936 23.4205 27.2762 23.3258L25.7549 22.0957Z" fill="white"/>
<path d="M6.88477 18.8896H13.7632C14.0393 18.8896 14.2632 18.666 14.2632 18.3896C14.2632 18.1133 14.0393 17.8896 13.7632 17.8896H6.88477C6.60867 17.8896 6.38477 18.1133 6.38477 18.3896C6.38477 18.666 6.60862 18.8896 6.88477 18.8896Z" fill="white"/>
<path d="M16.8569 21.0312H6.88477C6.60867 21.0312 6.38477 21.2549 6.38477 21.5312C6.38477 21.8076 6.60867 22.0312 6.88477 22.0312H16.8569C17.133 22.0312 17.3569 21.8076 17.3569 21.5312C17.3569 21.2549 17.133 21.0312 16.8569 21.0312Z" fill="white"/>
<path d="M12.5825 24.1709H6.88477C6.60867 24.1709 6.38477 24.3945 6.38477 24.6709C6.38477 24.9472 6.60867 25.1709 6.88477 25.1709H12.5825C12.8586 25.1709 13.0825 24.9472 13.0825 24.6709C13.0825 24.3945 12.8586 24.1709 12.5825 24.1709Z" fill="white"/>
<path d="M6.88477 15.748H13.7632C14.0393 15.748 14.2632 15.5244 14.2632 15.248C14.2632 14.9717 14.0393 14.748 13.7632 14.748H6.88477C6.60867 14.748 6.38477 14.9717 6.38477 15.248C6.38477 15.5244 6.60862 15.748 6.88477 15.748Z" fill="white"/>
<path d="M6.88477 12.6079H13.7632C14.0393 12.6079 14.2632 12.3843 14.2632 12.1079C14.2632 11.8316 14.0393 11.6079 13.7632 11.6079H6.88477C6.60867 11.6079 6.38477 11.8316 6.38477 12.1079C6.38477 12.3843 6.60862 12.6079 6.88477 12.6079Z" fill="white"/>
<path d="M23.9829 11.6079H17.1045C16.8284 11.6079 16.6045 11.8316 16.6045 12.1079C16.6045 12.3843 16.8284 12.6079 17.1045 12.6079H23.9829C24.259 12.6079 24.4829 12.3843 24.4829 12.1079C24.4829 11.8316 24.259 11.6079 23.9829 11.6079Z" fill="white"/>
<path d="M23.9829 17.8896H17.1045C16.8284 17.8896 16.6045 18.1133 16.6045 18.3896C16.6045 18.666 16.8284 18.8896 17.1045 18.8896H23.9829C24.259 18.8896 24.4829 18.666 24.4829 18.3896C24.4829 18.1133 24.259 17.8896 23.9829 17.8896Z" fill="white"/>
</svg>
