<svg width="555" height="391" viewBox="0 0 555 391" fill="none" xmlns="http://www.w3.org/2000/svg">
<path d="M258.956 432.23C226.471 430.229 255.091 387.948 144.759 369.765C34.4265 351.582 -5.47523 162.701 -83.6353 144.925" stroke="white" stroke-opacity="0.4" stroke-width="2"/>
<path d="M374.029 448.582C334.89 445.204 366.646 383.009 241.016 364.986C115.386 346.964 61.6117 150.239 -25.007 135.036" stroke="white" stroke-opacity="0.4" stroke-width="2"/>
<path d="M527.513 483.108C431.204 397.96 468.103 43.4348 329.865 8.62058C191.623 -26.1937 231.042 72.4956 132.213 72.4956C33.3895 72.4956 -13.5075 9.41074 -65.4342 8.62058" stroke="white" stroke-opacity="0.4" stroke-width="2"/>
<path d="M335.123 451.289C252.094 428.516 253.017 223.501 102.177 197.87C-48.6682 172.24 -62.6397 60.3594 -130.773 54.7904" stroke="white" stroke-opacity="0.4" stroke-width="2"/>
<path d="M554.736 410.054C459.422 389.718 445.327 161.774 272.577 141.291C99.8324 120.809 68.8724 6.95513 -9.57655 3.32135" stroke="white" stroke-opacity="0.4" stroke-width="2"/>
</svg>
