<svg width="30" height="30" viewBox="0 0 30 30" fill="none" xmlns="http://www.w3.org/2000/svg">
<g clip-path="url(#clip0_148_24)">
<path d="M1.5325 30H22.2175C23.0625 30 23.75 29.3125 23.75 28.4675V21.875C23.75 21.53 23.47 21.25 23.125 21.25C22.78 21.25 22.5 21.53 22.5 21.875V28.4675C22.5 28.6225 22.3725 28.75 22.2175 28.75H1.5325C1.3775 28.75 1.25 28.6225 1.25 28.4675V2.7825C1.25 2.6275 1.3775 2.5 1.5325 2.5H3.865C4.12375 3.22625 4.81125 3.75 5.625 3.75H18.125C18.9388 3.75 19.6263 3.22625 19.885 2.5H22.2175C22.3725 2.5 22.5 2.6275 22.5 2.7825V7.58125C22.5 7.92625 22.78 8.20625 23.125 8.20625C23.47 8.20625 23.75 7.92625 23.75 7.58125V2.7825C23.75 1.9375 23.0625 1.25 22.2175 1.25H19.885C19.6263 0.52375 18.9388 0 18.125 0H5.625C4.81125 0 4.12375 0.52375 3.865 1.25H1.5325C0.6875 1.25 0 1.9375 0 2.7825V28.4687C0 29.3125 0.6875 30 1.5325 30ZM5.625 1.25H18.125C18.47 1.25 18.75 1.53125 18.75 1.875C18.75 2.21875 18.47 2.5 18.125 2.5H5.625C5.28 2.5 5 2.21875 5 1.875C5 1.53125 5.28 1.25 5.625 1.25Z" fill="white"/>
<path d="M18.75 9.375C18.75 9.03 18.47 8.75 18.125 8.75H5.625C5.28 8.75 5 9.03 5 9.375C5 9.72 5.28 10 5.625 10H18.125C18.47 10 18.75 9.72 18.75 9.375Z" fill="white"/>
<path d="M15.3575 15.625C15.3575 15.28 15.0775 15 14.7325 15H5.625C5.28 15 5 15.28 5 15.625C5 15.97 5.28 16.25 5.625 16.25H14.7325C15.0788 16.25 15.3575 15.97 15.3575 15.625Z" fill="white"/>
<path d="M5.625 21.25C5.28 21.25 5 21.53 5 21.875C5 22.22 5.28 22.5 5.625 22.5H11.875C12.22 22.5 12.5 22.22 12.5 21.875C12.5 21.53 12.22 21.25 11.875 21.25H5.625Z" fill="white"/>
<path d="M16.8749 21.875C16.9299 21.875 16.9861 21.8675 17.0411 21.8525L19.9386 21.0537C20.0424 21.025 20.1386 20.97 20.2149 20.8925L29.3824 11.7237C30.2036 10.9012 30.2036 9.56373 29.3824 8.74123C28.5861 7.94498 27.1961 7.94498 26.3999 8.74123L17.2324 17.91C17.1561 17.9875 17.1011 18.0812 17.0724 18.1862L16.2736 21.0825C16.2136 21.2987 16.2749 21.5312 16.4336 21.69C16.5511 21.81 16.7111 21.875 16.8749 21.875ZM18.2324 18.6775L27.2836 9.62623C27.6086 9.30123 28.1736 9.30123 28.4986 9.62623C28.8336 9.96123 28.8336 10.5062 28.4986 10.8412L19.4474 19.8925L17.7711 20.355L18.2324 18.6775Z" fill="white"/>
</g>
<defs>
<clipPath id="clip0_148_24">
<rect width="30" height="30" fill="white"/>
</clipPath>
</defs>
</svg>
