<svg xmlns="http://www.w3.org/2000/svg" xmlns:xlink="http://www.w3.org/1999/xlink" width="500" zoomAndPan="magnify" viewBox="0 0 375 374.999991" height="500" preserveAspectRatio="xMidYMid meet" version="1.0"><defs><clipPath id="c5008f378d"><path d="M 118 15.339844 L 336 15.339844 L 336 114 L 118 114 Z M 118 15.339844 " clip-rule="nonzero"/></clipPath><clipPath id="37b1a7a3ae"><path d="M 0 107 L 354 107 L 354 359.589844 L 0 359.589844 Z M 0 107 " clip-rule="nonzero"/></clipPath><clipPath id="f43ce763a3"><path d="M 86 291 L 133 291 L 133 328.28125 L 86 328.28125 Z M 86 291 " clip-rule="nonzero"/></clipPath><clipPath id="247f3e3c60"><path d="M 176 221 L 187.40625 221 L 187.40625 233 L 176 233 Z M 176 221 " clip-rule="nonzero"/></clipPath><clipPath id="bdf8176bff"><path d="M 34.40625 252 L 50 252 L 50 268 L 34.40625 268 Z M 34.40625 252 " clip-rule="nonzero"/></clipPath></defs><g clip-path="url(#c5008f378d)"><path fill="#3fbb69" d="M 118.867188 113.382812 L 252.152344 15.355469 L 335.15625 113.382812 Z M 118.867188 113.382812 " fill-opacity="1" fill-rule="nonzero"/></g><path stroke-linecap="round" transform="matrix(0.215146, 0, 0, -0.21511, -270.008591, 644.78907)" fill="none" stroke-linejoin="round" d="M 2285.203926 2754.100428 L 2416.89122 2853.904176 L 2522.796636 2729.803228 " stroke="#ffffff" stroke-width="30" stroke-opacity="1" stroke-miterlimit="10"/><path fill="#ffffff" d="M 257.617188 116.800781 C 259.292969 112.886719 260.21875 108.585938 260.21875 104.046875 C 260.21875 85.914062 245.351562 71.21875 227.023438 71.21875 C 208.671875 71.21875 193.804688 85.914062 193.804688 104.046875 C 193.804688 108.585938 194.730469 112.886719 196.40625 116.800781 L 257.617188 116.800781 " fill-opacity="1" fill-rule="nonzero"/><path fill="#3fbb69" d="M 41.976562 116.4375 L 193.804688 30.886719 L 258.261719 116.4375 Z M 41.976562 116.4375 " fill-opacity="1" fill-rule="nonzero"/><path fill="#ffffff" d="M 192.941406 119.855469 C 194.601562 115.941406 195.523438 111.617188 195.523438 107.101562 C 195.523438 88.96875 180.660156 74.273438 162.328125 74.273438 C 143.996094 74.273438 129.128906 88.96875 129.128906 107.101562 C 129.128906 111.617188 130.054688 115.941406 131.734375 119.855469 L 192.941406 119.855469 " fill-opacity="1" fill-rule="nonzero"/><path stroke-linecap="round" transform="matrix(0.215146, 0, 0, -0.21511, -270.008591, 644.78907)" fill="none" stroke-linejoin="round" d="M 2003.291807 2723.193227 L 2136.395288 2800.207 L 2233.894359 2666.408962 " stroke="#ffffff" stroke-width="30" stroke-opacity="1" stroke-miterlimit="10"/><g clip-path="url(#37b1a7a3ae)"><path fill="#5c2b15" d="M 353.121094 321.886719 C 353.121094 342.710938 337.027344 359.574219 317.191406 359.574219 L 35.84375 359.574219 C 16.007812 359.574219 -0.0859375 342.710938 -0.0859375 321.886719 L -0.0859375 144.9375 C -0.0859375 124.117188 16.007812 107.230469 35.84375 107.230469 L 317.191406 107.230469 C 337.027344 107.230469 353.121094 124.117188 353.121094 144.9375 L 353.121094 321.886719 " fill-opacity="1" fill-rule="nonzero"/></g><path fill="#8a451b" d="M 374.871094 188.285156 L 258.046875 188.285156 C 231.839844 188.285156 210.605469 208.480469 210.605469 233.414062 C 210.605469 258.34375 231.839844 278.542969 258.046875 278.542969 L 374.871094 278.542969 L 374.871094 188.285156 " fill-opacity="1" fill-rule="nonzero"/><path fill="#f89f27" d="M 267.234375 233.414062 C 267.234375 243.5 259.058594 251.699219 248.945312 251.699219 C 238.855469 251.699219 230.660156 243.5 230.660156 233.414062 C 230.660156 223.324219 238.855469 215.128906 248.945312 215.128906 C 259.058594 215.128906 267.234375 223.324219 267.234375 233.414062 " fill-opacity="1" fill-rule="nonzero"/><path fill="#993959" d="M 104.9375 184.261719 C 104.804688 184.261719 104.671875 184.25 104.542969 184.222656 C 103.363281 184.007812 102.585938 182.878906 102.804688 181.699219 C 103.65625 177.074219 100.660156 171.507812 99.4375 169.757812 C 98.75 168.78125 98.988281 167.429688 99.96875 166.738281 C 100.941406 166.054688 102.292969 166.292969 102.976562 167.269531 C 103.199219 167.59375 108.410156 175.144531 107.058594 182.480469 C 106.867188 183.527344 105.957031 184.261719 104.9375 184.261719 " fill-opacity="1" fill-rule="nonzero"/><path fill="#a84367" d="M 155.992188 231.179688 C 154.363281 230.105469 153.292969 228.367188 153.253906 226.414062 C 152.234375 176.886719 95.539062 170.011719 75.09375 195.03125 C 74.417969 195.859375 73.570312 196.546875 72.5625 196.894531 C 55.378906 202.785156 48.15625 228.378906 63.769531 241.902344 L 84.574219 250.984375 C 91.621094 254.066406 97.167969 260.105469 98.9375 267.601562 C 101.09375 276.769531 110.828125 282.785156 122.988281 282.785156 C 136.046875 282.785156 140.785156 277.394531 143.921875 273.753906 C 144.734375 272.8125 145.832031 272.148438 147.046875 271.902344 C 168.933594 267.589844 171.945312 241.671875 155.992188 231.179688 " fill-opacity="1" fill-rule="nonzero"/><path fill="#ff8c83" d="M 122.988281 292.652344 L 103.957031 297.136719 C 103.957031 297.136719 103.667969 284.277344 100.480469 281.09375 C 100.464844 281.066406 100.433594 281.035156 100.40625 281.007812 C 98.445312 279.183594 94.871094 279.175781 91.0625 279.664062 L 91.050781 279.664062 C 87.152344 280.183594 83.019531 281.210938 80.132812 281.324219 C 66.878906 282.007812 68.449219 271.730469 66.289062 261.863281 C 66.128906 261.113281 65.9375 260.355469 65.726562 259.609375 C 65.492188 258.8125 65.234375 258.101562 64.976562 257.464844 C 62.453125 251.488281 58.644531 251.921875 59.121094 247.511719 C 59.292969 245.90625 61.6875 244.042969 63.777344 241.890625 C 65.714844 239.910156 67.378906 237.714844 66.894531 235.242188 C 66.074219 231.054688 64.253906 223.46875 67.617188 213.378906 C 75.773438 215.140625 79.324219 222.441406 81.632812 230.933594 C 84.859375 242.742188 97.855469 245.347656 108.828125 241.066406 C 110.660156 243.394531 111.398438 246.515625 110.585938 249.578125 C 109.503906 253.667969 106 256.460938 102.035156 256.820312 L 102.050781 256.832031 C 100.421875 261.992188 100.519531 266.746094 102.078125 270.746094 C 103.421875 274.203125 105.832031 277.089844 109.117188 279.175781 C 109.132812 279.175781 109.132812 279.175781 109.132812 279.175781 C 112.082031 281.035156 115.734375 282.25 119.949219 282.640625 L 122.988281 292.652344 " fill-opacity="1" fill-rule="nonzero"/><path fill="#a84367" d="M 68.351562 240.757812 C 67.25 240.757812 66.125 240.515625 65.054688 239.898438 C 64.019531 239.300781 63.664062 237.972656 64.253906 236.9375 C 64.851562 235.898438 66.175781 235.542969 67.210938 236.140625 C 69.042969 237.191406 71.824219 235.0625 71.851562 235.039062 C 72.789062 234.289062 74.144531 234.433594 74.894531 235.371094 C 75.644531 236.304688 75.496094 237.667969 74.5625 238.421875 C 73.261719 239.46875 70.875 240.757812 68.351562 240.757812 " fill-opacity="1" fill-rule="nonzero"/><path fill="#ed4559" d="M 73.582031 257.988281 C 73.148438 256.878906 71.898438 256.324219 70.789062 256.742188 C 67.976562 257.84375 65.03125 257.464844 64.976562 257.464844 C 65.234375 258.101562 65.492188 258.8125 65.726562 259.609375 C 65.9375 260.355469 66.128906 261.113281 66.289062 261.863281 L 66.300781 261.863281 C 67.816406 261.863281 70.078125 261.675781 72.34375 260.796875 C 73.453125 260.355469 74.015625 259.113281 73.582031 257.988281 " fill-opacity="1" fill-rule="nonzero"/><path fill="#a84367" d="M 65.667969 226.277344 C 64.597656 226.277344 63.667969 225.476562 63.527344 224.386719 C 63.375 223.195312 64.210938 222.113281 65.390625 221.960938 C 66.390625 221.832031 69.949219 221.445312 73.941406 221.960938 C 75.125 222.113281 75.964844 223.195312 75.8125 224.382812 C 75.660156 225.574219 74.574219 226.402344 73.398438 226.261719 C 69.910156 225.816406 66.8125 226.144531 65.949219 226.261719 C 65.855469 226.273438 65.757812 226.277344 65.667969 226.277344 " fill-opacity="1" fill-rule="nonzero"/><g clip-path="url(#f43ce763a3)"><path fill="#ffdbcf" d="M 90.976562 328.035156 L 127.828125 328.035156 C 130.496094 328.035156 132.390625 325.5625 132.148438 322.890625 C 131.128906 311.929688 127.371094 295.898438 122.988281 292.664062 C 119.414062 290.011719 111.0625 291.519531 103.949219 297.140625 C 95.488281 303.820312 89.816406 313.035156 86.550781 321.441406 C 85.308594 324.628906 87.5625 328.035156 90.976562 328.035156 " fill-opacity="1" fill-rule="nonzero"/></g><path fill="#ff7171" d="M 101.144531 259.039062 C 100.136719 259.039062 99.117188 258.910156 98.097656 258.640625 C 96.941406 258.335938 96.253906 257.148438 96.558594 255.992188 C 96.863281 254.835938 98.050781 254.140625 99.203125 254.449219 C 103.257812 255.523438 107.417969 253.097656 108.488281 249.03125 C 109.566406 244.972656 107.136719 240.796875 103.089844 239.722656 C 101.464844 239.296875 99.792969 239.40625 98.25 240.046875 C 97.144531 240.503906 95.878906 239.976562 95.421875 238.871094 C 94.964844 237.769531 95.488281 236.5 96.59375 236.042969 C 99.019531 235.039062 101.644531 234.859375 104.191406 235.535156 C 107.273438 236.347656 109.851562 238.320312 111.453125 241.078125 C 113.058594 243.832031 113.492188 247.054688 112.675781 250.144531 C 111.261719 255.488281 106.421875 259.039062 101.144531 259.039062 " fill-opacity="1" fill-rule="nonzero"/><path fill="#a84367" d="M 65.121094 213.019531 C 75.070312 213.746094 79.089844 221.617188 81.636719 230.933594 C 85.351562 244.527344 101.988281 245.921875 113.609375 238.679688 L 113.609375 197.890625 C 113.609375 197.890625 96.644531 190.824219 82.765625 197.148438 C 68.886719 203.46875 65.121094 213.019531 65.121094 213.019531 " fill-opacity="1" fill-rule="nonzero"/><path fill="#993959" d="M 98.824219 245.152344 C 95.839844 245.152344 92.953125 244.65625 90.375 243.640625 C 84.871094 241.480469 81.128906 237.285156 79.546875 231.511719 C 76.527344 220.449219 72.304688 215.71875 64.964844 215.179688 C 63.777344 215.097656 62.878906 214.058594 62.964844 212.863281 C 63.054688 211.671875 64.089844 210.773438 65.28125 210.859375 C 77.136719 211.722656 81.367188 221.734375 83.722656 230.367188 C 84.925781 234.769531 87.773438 237.964844 91.953125 239.605469 C 97.945312 241.960938 106 240.875 112.46875 236.839844 C 113.480469 236.207031 114.816406 236.519531 115.445312 237.535156 C 116.078125 238.550781 115.769531 239.886719 114.753906 240.519531 C 109.882812 243.558594 104.1875 245.152344 98.824219 245.152344 " fill-opacity="1" fill-rule="nonzero"/><g clip-path="url(#247f3e3c60)"><path fill="#ffbd5c" d="M 186.433594 225.105469 L 184.445312 224.015625 L 183.359375 222.023438 C 183.023438 221.417969 182.394531 221.046875 181.707031 221.046875 C 181.027344 221.046875 180.394531 221.417969 180.0625 222.023438 L 178.976562 224.015625 L 176.992188 225.105469 C 176.390625 225.433594 176.011719 226.0625 176.011719 226.753906 C 176.011719 227.441406 176.382812 228.074219 176.988281 228.40625 L 178.976562 229.496094 L 180.0625 231.488281 C 180.394531 232.09375 181.027344 232.464844 181.707031 232.464844 C 182.394531 232.464844 183.023438 232.09375 183.359375 231.488281 L 184.445312 229.496094 L 186.433594 228.40625 C 187.035156 228.074219 187.40625 227.441406 187.40625 226.753906 C 187.40625 226.0625 187.03125 225.433594 186.433594 225.105469 " fill-opacity="1" fill-rule="nonzero"/></g><g clip-path="url(#bdf8176bff)"><path fill="#ffb450" d="M 48.679688 258.050781 L 45.59375 256.359375 L 43.902344 253.269531 C 43.535156 252.597656 42.839844 252.183594 42.078125 252.183594 C 41.316406 252.183594 40.617188 252.597656 40.253906 253.265625 L 38.5625 256.359375 L 35.476562 258.050781 C 34.804688 258.417969 34.394531 259.117188 34.394531 259.886719 C 34.394531 260.644531 34.8125 261.34375 35.476562 261.710938 L 38.5625 263.402344 L 40.253906 266.496094 C 40.613281 267.164062 41.316406 267.582031 42.078125 267.582031 C 42.839844 267.582031 43.535156 267.164062 43.902344 266.496094 L 45.59375 263.402344 L 48.679688 261.710938 C 49.34375 261.34375 49.761719 260.644531 49.761719 259.886719 C 49.761719 259.117188 49.34375 258.417969 48.679688 258.050781 " fill-opacity="1" fill-rule="nonzero"/></g><path fill="#b7e24d" d="M 111.121094 165.898438 C 108.867188 168.304688 107.257812 173.339844 109.339844 175.296875 C 111.425781 177.261719 116.421875 175.410156 118.679688 173 C 120.933594 170.589844 121.074219 167.042969 118.984375 165.085938 C 116.898438 163.121094 113.378906 163.488281 111.121094 165.898438 " fill-opacity="1" fill-rule="nonzero"/><path fill="#dddd6b" d="M 91.789062 162.914062 C 93.257812 167.523438 98.542969 173.179688 102.53125 171.898438 C 106.523438 170.617188 107.71875 162.890625 106.25 158.277344 C 104.773438 153.667969 100.34375 150.96875 96.351562 152.25 C 92.355469 153.53125 90.316406 158.304688 91.789062 162.914062 " fill-opacity="1" fill-rule="nonzero"/><path fill="#ffdbcf" d="M 151.746094 167.726562 C 137.285156 167.582031 125.113281 179.136719 124.519531 193.609375 C 124.21875 201.160156 126.996094 208.058594 131.699219 213.132812 C 136.339844 218.140625 139.097656 224.816406 139.097656 231.652344 C 147.632812 239.632812 155.875 239.628906 163.828125 231.652344 C 163.828125 224.933594 166.375 218.246094 171.003906 213.371094 C 175.605469 208.53125 178.429688 201.960938 178.429688 194.742188 C 178.429688 179.925781 166.507812 167.886719 151.746094 167.726562 " fill-opacity="1" fill-rule="nonzero"/><path fill="#ffffff" d="M 151.464844 235.875 C 150.269531 235.875 149.300781 234.902344 149.300781 233.707031 L 149.300781 221.046875 C 149.300781 219.847656 150.269531 218.878906 151.464844 218.878906 C 152.65625 218.878906 153.625 219.847656 153.625 221.046875 L 153.625 233.707031 C 153.625 234.902344 152.65625 235.875 151.464844 235.875 " fill-opacity="1" fill-rule="nonzero"/><path fill="#ffffff" d="M 151.507812 209.328125 C 151.453125 209.328125 151.390625 209.328125 151.335938 209.328125 C 149.773438 209.328125 148.332031 208.351562 147.734375 206.828125 C 146.367188 203.316406 145.246094 202.476562 143.285156 202.023438 C 142.25 201.785156 141.425781 200.882812 141.472656 199.816406 C 141.527344 198.421875 142.800781 197.46875 144.097656 197.769531 C 147.59375 198.535156 149.632812 200.324219 151.351562 204.238281 C 151.390625 204.339844 151.539062 204.339844 151.582031 204.238281 C 153.292969 200.324219 155.332031 198.535156 158.832031 197.769531 C 160.121094 197.472656 161.402344 198.421875 161.457031 199.8125 C 161.5 200.882812 160.671875 201.785156 159.632812 202.03125 C 157.683594 202.480469 156.5625 203.320312 155.191406 206.828125 C 154.597656 208.351562 153.160156 209.328125 151.507812 209.328125 " fill-opacity="1" fill-rule="nonzero"/><path fill="#ffffff" d="M 153.878906 213.578125 C 153.878906 214.921875 152.800781 216.011719 151.457031 216.011719 C 150.117188 216.011719 149.035156 214.921875 149.035156 213.578125 C 149.035156 212.242188 150.117188 211.152344 151.457031 211.152344 C 152.800781 211.152344 153.878906 212.242188 153.878906 213.578125 " fill-opacity="1" fill-rule="nonzero"/><path fill="#543c66" d="M 151.457031 233.707031 C 147.339844 233.707031 143.21875 233.023438 139.097656 231.652344 C 139.097656 238.753906 144.382812 244.433594 151.457031 244.433594 C 158.539062 244.433594 163.824219 238.753906 163.824219 231.652344 C 159.699219 233.023438 155.582031 233.707031 151.457031 233.707031 " fill-opacity="1" fill-rule="nonzero"/></svg>